<svg width="5502" height="682" viewBox="0 0 5502 682" fill="none" xmlns="http://www.w3.org/2000/svg">
<path d="M5502 682C4902.24 682 4296.23 682 3347.19 682C1899.52 682 1887.56 682 0.998457 682V216L5502 216V682Z" fill="white"/>
<path d="M2210.33 132.328C2207.13 130.012 2204.83 126.381 2205.23 122.82C2206.66 110.25 2198.95 99.514 2186.5 97.5551C2184.29 97.2068 2182.09 96.2576 2180.09 95.1898C2176.34 93.1762 2172.42 92.4347 2168.37 93.5638C2166.19 94.1741 2164.84 93.9017 2163.1 92.3287C2153.19 83.3539 2137.66 86.5614 2132.8 98.7424C2131.4 102.241 2129.34 104.283 2126.11 105.614C2125.39 105.911 2124.6 106.247 2124.08 106.796C2122.47 108.524 2120.93 108.098 2118.98 107.266C2106.36 101.891 2092.77 110.736 2092.24 124.413C2092.17 126.366 2091.36 128.487 2090.31 130.172C2086.56 136.207 2085.9 142.262 2088.41 148.536C2086.6 153.065 2088.18 158.713 2092.65 161.989C2097.55 165.586 2103.2 163.709 2107.53 160.228C2108.76 160.112 2110.01 159.863 2111.28 159.473C2113.83 158.693 2116.13 157.76 2118.27 158.8C2118.61 159.052 2118.96 159.277 2119.32 159.484C2119.41 159.563 2119.51 159.637 2119.6 159.725C2119.61 159.705 2119.62 159.689 2119.64 159.67C2120.34 160.051 2121.08 160.34 2121.83 160.561C2125.99 175.281 2134.94 188.174 2147.24 197.312C2146.49 206.315 2144.09 215.143 2139.63 223.793C2134.64 226.84 2128.56 224.636 2123.34 223.191C2118.73 221.913 2114.24 221.442 2109.63 222.912C2108.68 223.217 2108.23 223.97 2108.19 224.751C2108.18 224.773 2108.17 224.791 2108.17 224.814C2107.82 226.315 2107.47 227.816 2107.12 229.317C2106.79 230.721 2107.8 231.683 2108.9 231.872C2109.07 231.916 2109.25 231.946 2109.45 231.946H2194.71C2195.46 231.946 2195.99 231.617 2196.32 231.152C2196.81 230.768 2197.13 230.18 2197.13 229.519V226.4C2197.13 225.477 2196.5 224.687 2195.66 224.423C2195.33 224.15 2194.91 223.975 2194.36 223.975H2168.6C2167.32 222.496 2166.02 221.003 2164.67 219.526C2160.93 215.416 2159.28 210.841 2160.96 205.307C2161.55 203.384 2161.97 201.385 2162.21 199.39C2162.93 193.478 2163.6 187.539 2164.28 181.512C2172.93 180.689 2180.75 177.003 2186.82 170.748C2189.33 170.741 2191.59 169.995 2193.48 168.727L2194.24 168.492C2198.34 171.807 2204.68 172.149 2209.47 170.382C2213.9 168.744 2217.74 164.308 2217.87 159.43C2217.88 158.974 2217.86 158.522 2217.82 158.074C2221.27 149.181 2218.12 137.965 2210.33 132.328ZM2135.13 159.117C2135.18 159.098 2135.22 159.083 2135.27 159.065C2136.16 158.725 2137.72 159.115 2138.53 159.739C2139.66 160.621 2140.73 161.581 2141.78 162.559C2141.8 162.642 2141.8 162.719 2141.83 162.804C2143.43 168.151 2145.03 173.499 2146.63 178.846C2147.01 181.541 2147.25 184.219 2147.38 186.882C2139.1 180.075 2134.58 169.967 2135.13 159.117ZM2166.19 174.572C2166.57 173.675 2166.94 172.779 2167.33 171.887C2167.46 171.887 2167.59 171.887 2167.72 171.886C2167.72 171.577 2167.73 171.267 2167.74 170.957C2168.81 168.562 2169.97 166.221 2171.28 163.984C2172.95 165.455 2174.69 166.776 2176.54 167.854C2173.44 170.595 2169.97 172.845 2166.19 174.572Z" fill="white"/>
<path d="M3320.55 169.433C3318.63 168.04 3317.25 165.856 3317.49 163.715C3318.34 156.155 3313.71 149.699 3306.22 148.521C3304.89 148.311 3303.57 147.74 3302.37 147.098C3300.11 145.887 3297.75 145.441 3295.32 146.12C3294 146.487 3293.2 146.323 3292.15 145.377C3286.19 139.98 3276.85 141.909 3273.93 149.235C3273.09 151.339 3271.85 152.567 3269.9 153.367C3269.47 153.546 3268.99 153.748 3268.68 154.078C3267.71 155.117 3266.79 154.861 3265.61 154.361C3258.03 151.128 3249.85 156.447 3249.54 164.673C3249.49 165.847 3249 167.123 3248.37 168.136C3246.12 171.766 3245.72 175.407 3247.23 179.18C3246.14 181.904 3247.09 185.301 3249.78 187.271C3252.73 189.434 3256.13 188.305 3258.73 186.212C3259.47 186.142 3260.22 185.992 3260.98 185.758C3262.52 185.288 3263.9 184.727 3265.19 185.353C3265.39 185.505 3265.6 185.64 3265.82 185.764C3265.87 185.812 3265.93 185.856 3265.99 185.909C3266 185.897 3266 185.888 3266.01 185.876C3266.43 186.106 3266.88 186.279 3267.33 186.412C3269.83 195.264 3275.22 203.018 3282.61 208.514C3282.16 213.929 3280.72 219.237 3278.03 224.439C3275.04 226.272 3271.38 224.947 3268.24 224.078C3265.46 223.309 3262.76 223.026 3259.99 223.91C3259.42 224.093 3259.15 224.546 3259.12 225.016C3259.12 225.029 3259.11 225.04 3259.11 225.053C3258.9 225.956 3258.69 226.859 3258.48 227.762C3258.28 228.606 3258.89 229.185 3259.55 229.298C3259.66 229.325 3259.77 229.343 3259.89 229.343H3311.16C3311.61 229.343 3311.93 229.145 3312.13 228.865C3312.42 228.634 3312.62 228.281 3312.62 227.884V226.008C3312.62 225.452 3312.24 224.977 3311.73 224.818C3311.53 224.655 3311.28 224.549 3310.95 224.549H3295.46C3294.69 223.66 3293.9 222.762 3293.1 221.873C3290.84 219.402 3289.85 216.65 3290.86 213.322C3291.21 212.166 3291.47 210.964 3291.61 209.764C3292.05 206.208 3292.45 202.636 3292.86 199.012C3298.06 198.517 3302.76 196.3 3306.41 192.538C3307.93 192.535 3309.29 192.086 3310.42 191.323L3310.87 191.182C3313.34 193.175 3317.15 193.381 3320.03 192.318C3322.7 191.333 3325.01 188.665 3325.09 185.732C3325.1 185.458 3325.08 185.186 3325.06 184.916C3327.13 179.568 3325.24 172.823 3320.55 169.433ZM3275.33 185.543C3275.36 185.532 3275.38 185.523 3275.41 185.512C3275.95 185.308 3276.89 185.542 3277.37 185.918C3278.05 186.448 3278.7 187.026 3279.33 187.614C3279.34 187.663 3279.34 187.71 3279.35 187.761C3280.32 190.977 3281.28 194.193 3282.24 197.409C3282.47 199.03 3282.62 200.64 3282.7 202.242C3277.72 198.148 3274.99 192.069 3275.33 185.543ZM3294.01 194.838C3294.23 194.299 3294.46 193.76 3294.69 193.224C3294.77 193.224 3294.85 193.224 3294.93 193.223C3294.93 193.037 3294.93 192.851 3294.94 192.664C3295.58 191.224 3296.28 189.816 3297.07 188.471C3298.07 189.355 3299.12 190.15 3300.23 190.798C3298.37 192.446 3296.28 193.8 3294.01 194.838Z" fill="white"/>
<path d="M3384.61 161.19C3382.69 159.798 3381.31 157.614 3381.55 155.472C3382.4 147.913 3377.77 141.456 3370.28 140.278C3368.95 140.069 3367.63 139.498 3366.43 138.856C3364.17 137.645 3361.81 137.199 3359.38 137.878C3358.06 138.245 3357.26 138.081 3356.21 137.135C3350.25 131.737 3340.91 133.666 3337.99 140.992C3337.15 143.096 3335.91 144.324 3333.96 145.124C3333.53 145.303 3333.05 145.505 3332.74 145.835C3331.77 146.875 3330.85 146.618 3329.67 146.118C3322.08 142.886 3313.91 148.205 3313.6 156.43C3313.55 157.605 3313.06 158.881 3312.43 159.894C3310.18 163.523 3309.78 167.165 3311.29 170.938C3310.2 173.662 3311.15 177.058 3313.84 179.029C3316.79 181.191 3320.19 180.063 3322.79 177.969C3323.53 177.899 3324.28 177.75 3325.04 177.515C3326.58 177.046 3327.96 176.485 3329.25 177.11C3329.45 177.262 3329.66 177.397 3329.88 177.522C3329.93 177.569 3329.99 177.614 3330.05 177.667C3330.06 177.655 3330.06 177.645 3330.07 177.634C3330.49 177.863 3330.94 178.037 3331.39 178.169C3333.89 187.022 3339.28 194.776 3346.67 200.271C3346.22 205.686 3344.78 210.995 3342.09 216.197C3339.1 218.03 3335.44 216.704 3332.3 215.835C3329.52 215.066 3326.82 214.783 3324.05 215.667C3323.48 215.851 3323.21 216.304 3323.18 216.774C3323.18 216.787 3323.17 216.797 3323.17 216.811C3322.96 217.714 3322.75 218.617 3322.54 219.519C3322.34 220.364 3322.95 220.942 3323.61 221.056C3323.72 221.082 3323.83 221.1 3323.95 221.1H3375.22C3375.67 221.1 3375.99 220.903 3376.19 220.623C3376.48 220.392 3376.68 220.038 3376.68 219.641V217.765C3376.68 217.21 3376.3 216.735 3375.79 216.576C3375.59 216.412 3375.34 216.306 3375.01 216.306H3359.52C3358.75 215.417 3357.96 214.519 3357.16 213.631C3354.9 211.159 3353.91 208.408 3354.92 205.08C3355.27 203.924 3355.53 202.721 3355.67 201.521C3356.11 197.966 3356.51 194.394 3356.92 190.77C3362.12 190.275 3366.82 188.058 3370.47 184.296C3371.99 184.292 3373.35 183.843 3374.48 183.081L3374.93 182.94C3377.4 184.933 3381.21 185.139 3384.09 184.076C3386.76 183.091 3389.07 180.423 3389.15 177.49C3389.16 177.215 3389.14 176.943 3389.12 176.674C3391.19 171.326 3389.3 164.581 3384.61 161.19ZM3339.39 177.301C3339.42 177.29 3339.44 177.281 3339.47 177.27C3340.01 177.065 3340.95 177.3 3341.43 177.675C3342.11 178.206 3342.76 178.783 3343.39 179.371C3343.4 179.421 3343.4 179.467 3343.41 179.519C3344.38 182.734 3345.34 185.951 3346.3 189.166C3346.53 190.787 3346.68 192.397 3346.76 193.999C3341.78 189.905 3339.05 183.826 3339.39 177.301ZM3358.07 186.596C3358.29 186.057 3358.52 185.518 3358.75 184.981C3358.83 184.981 3358.91 184.981 3358.99 184.981C3358.99 184.795 3358.99 184.608 3359 184.422C3359.64 182.982 3360.34 181.574 3361.13 180.228C3362.13 181.113 3363.18 181.908 3364.29 182.556C3362.43 184.204 3360.34 185.557 3358.07 186.596Z" fill="white"/>
<path d="M3444.56 173.693C3443.14 172.668 3442.12 171.06 3442.3 169.484C3442.93 163.92 3439.52 159.167 3434.01 158.3C3433.03 158.146 3432.05 157.726 3431.17 157.253C3429.51 156.362 3427.77 156.033 3425.98 156.533C3425.01 156.803 3424.42 156.683 3423.65 155.986C3419.26 152.014 3412.39 153.433 3410.24 158.826C3409.62 160.374 3408.71 161.278 3407.27 161.867C3406.95 161.999 3406.6 162.148 3406.38 162.391C3405.66 163.156 3404.98 162.967 3404.12 162.599C3398.53 160.219 3392.52 164.135 3392.28 170.189C3392.25 171.054 3391.89 171.993 3391.43 172.739C3389.77 175.41 3389.47 178.091 3390.59 180.868C3389.78 182.873 3390.48 185.373 3392.46 186.823C3394.63 188.415 3397.13 187.585 3399.05 186.044C3399.59 185.992 3400.15 185.882 3400.71 185.71C3401.84 185.364 3402.85 184.951 3403.8 185.411C3403.95 185.523 3404.11 185.623 3404.27 185.714C3404.31 185.749 3404.35 185.782 3404.39 185.821C3404.4 185.812 3404.4 185.805 3404.41 185.797C3404.72 185.965 3405.05 186.093 3405.38 186.191C3407.22 192.707 3411.18 198.414 3416.63 202.46C3416.3 206.445 3415.24 210.353 3413.26 214.182C3411.05 215.531 3408.36 214.555 3406.05 213.916C3404.01 213.35 3402.02 213.142 3399.98 213.792C3399.56 213.927 3399.36 214.261 3399.34 214.606C3399.34 214.616 3399.33 214.624 3399.33 214.634C3399.18 215.299 3399.02 215.963 3398.87 216.627C3398.72 217.249 3399.17 217.675 3399.66 217.759C3399.73 217.778 3399.81 217.791 3399.9 217.791H3437.64C3437.97 217.791 3438.21 217.646 3438.35 217.44C3438.57 217.27 3438.71 217.009 3438.71 216.717V215.336C3438.71 214.928 3438.44 214.578 3438.06 214.461C3437.92 214.34 3437.73 214.263 3437.49 214.263H3426.08C3425.52 213.608 3424.94 212.947 3424.35 212.293C3422.69 210.474 3421.96 208.449 3422.7 205.999C3422.96 205.148 3423.15 204.263 3423.25 203.38C3423.57 200.763 3423.87 198.133 3424.17 195.466C3428 195.101 3431.46 193.469 3434.15 190.7C3435.26 190.698 3436.26 190.367 3437.1 189.806L3437.43 189.702C3439.25 191.169 3442.05 191.321 3444.17 190.538C3446.14 189.813 3447.84 187.85 3447.89 185.691C3447.9 185.488 3447.89 185.288 3447.87 185.09C3449.4 181.154 3448 176.189 3444.56 173.693ZM3411.27 185.552C3411.29 185.543 3411.31 185.537 3411.33 185.529C3411.73 185.378 3412.41 185.551 3412.77 185.827C3413.27 186.218 3413.75 186.643 3414.21 187.075C3414.22 187.112 3414.22 187.146 3414.23 187.184C3414.94 189.551 3415.65 191.919 3416.36 194.286C3416.53 195.479 3416.63 196.664 3416.69 197.843C3413.03 194.829 3411.02 190.355 3411.27 185.552ZM3425.02 192.393C3425.18 191.996 3425.35 191.6 3425.52 191.205C3425.58 191.205 3425.64 191.205 3425.7 191.204C3425.7 191.068 3425.7 190.931 3425.7 190.793C3426.18 189.733 3426.69 188.697 3427.27 187.706C3428.01 188.357 3428.78 188.942 3429.6 189.42C3428.23 190.633 3426.69 191.629 3425.02 192.393Z" fill="white"/>
<path d="M2381.32 74.978C2376.01 71.1314 2372.18 65.0982 2372.85 59.1819C2375.21 38.2992 2362.42 20.4634 2341.73 17.2091C2338.05 16.6304 2334.4 15.0534 2331.08 13.2796C2324.84 9.93425 2318.34 8.7023 2311.61 10.5782C2307.98 11.5921 2305.74 11.1395 2302.86 8.52618C2286.39 -6.38384 2260.58 -1.05511 2252.51 19.1815C2250.2 24.9937 2246.77 28.386 2241.4 30.5972C2240.2 31.0913 2238.89 31.6488 2238.03 32.5611C2235.35 35.4319 2232.8 34.7236 2229.55 33.3422C2208.59 24.4125 2186.01 39.1061 2185.14 61.8287C2185.01 65.0741 2183.67 68.5977 2181.92 71.396C2175.69 81.4231 2174.59 91.4824 2178.77 101.905C2175.76 109.43 2178.39 118.813 2185.81 124.256C2193.95 130.23 2203.34 127.113 2210.54 121.33C2212.57 121.136 2214.65 120.724 2216.76 120.076C2220.99 118.779 2224.81 117.229 2228.38 118.957C2228.94 119.376 2229.52 119.749 2230.11 120.093C2230.27 120.225 2230.43 120.347 2230.58 120.494C2230.6 120.461 2230.62 120.435 2230.64 120.402C2231.82 121.036 2233.03 121.516 2234.28 121.882C2241.2 146.337 2256.08 167.757 2276.5 182.938C2275.26 197.896 2271.28 212.561 2263.86 226.932C2255.58 231.994 2245.47 228.333 2236.8 225.932C2229.14 223.809 2221.67 223.027 2214.02 225.469C2212.44 225.975 2211.7 227.227 2211.62 228.525C2211.61 228.561 2211.6 228.59 2211.59 228.628C2211.01 231.122 2210.43 233.616 2209.85 236.109C2209.3 238.443 2210.98 240.04 2212.81 240.354C2213.09 240.427 2213.39 240.477 2213.73 240.477H2355.37C2356.61 240.477 2357.49 239.931 2358.04 239.158C2358.85 238.52 2359.4 237.543 2359.4 236.446V231.264C2359.4 229.73 2358.35 228.418 2356.94 227.979C2356.4 227.526 2355.69 227.234 2354.79 227.234H2311.99C2309.87 224.778 2307.7 222.298 2305.47 219.843C2299.25 213.015 2296.5 205.415 2299.3 196.221C2300.27 193.027 2300.97 189.705 2301.37 186.391C2302.57 176.57 2303.68 166.702 2304.81 156.69C2319.18 155.323 2332.17 149.198 2342.25 138.806C2346.44 138.796 2350.19 137.556 2353.32 135.45L2354.58 135.06C2361.4 140.567 2371.93 141.135 2379.88 138.198C2387.25 135.477 2393.62 128.107 2393.85 120.005C2393.87 119.246 2393.83 118.495 2393.76 117.75C2399.5 102.977 2394.25 84.3438 2381.32 74.978ZM2256.39 119.483C2256.47 119.452 2256.54 119.428 2256.62 119.397C2258.1 118.832 2260.69 119.48 2262.02 120.518C2263.91 121.982 2265.69 123.578 2267.43 125.202C2267.46 125.34 2267.47 125.468 2267.51 125.61C2270.17 134.493 2272.83 143.378 2275.48 152.261C2276.12 156.739 2276.52 161.186 2276.74 165.611C2262.99 154.302 2255.46 137.51 2256.39 119.483ZM2307.99 145.16C2308.61 143.67 2309.23 142.182 2309.88 140.7C2310.1 140.7 2310.32 140.7 2310.53 140.698C2310.53 140.185 2310.54 139.67 2310.56 139.154C2312.34 135.176 2314.27 131.286 2316.45 127.569C2319.22 130.013 2322.11 132.209 2325.19 134C2320.04 138.552 2314.26 142.29 2307.99 145.16Z" fill="white"/>
<path d="M2463.55 31.4878C2463.44 31.2839 2463.17 31.2603 2462.97 31.2603C2462.29 31.2603 2460.95 31.6101 2458.93 32.1397L2458.27 32.3125C2455.2 33.1137 2452.26 35.3805 2451 36.3483C2450.98 36.361 2450.97 36.3735 2450.95 36.3858C2452.1 34.8901 2455.13 30.2736 2454.88 29.7377C2454.85 29.6782 2454.79 29.6439 2454.73 29.6439C2454.45 29.6439 2454.14 29.9479 2453.58 30.4997C2452.79 31.2857 2451.46 32.6014 2449.06 34.1825C2447.52 35.1972 2445.85 36.6476 2444.39 37.9272C2442.5 39.5701 2440.73 41.1218 2439.89 41.1218C2439.73 41.1218 2439.61 41.0655 2439.53 40.9496C2438.44 39.4225 2437.32 38.6008 2436.2 38.5073C2435.96 38.4875 2435.71 38.467 2435.46 38.467C2434.52 38.467 2433.46 38.7264 2432.06 40.6077C2431.74 41.026 2428.72 41.371 2426.52 41.623C2425.34 41.7568 2424.33 41.8724 2423.8 41.9825C2423.5 42.0426 2423.37 42.0742 2423.39 42.1955C2423.4 42.3129 2423.51 42.3227 2423.85 42.3227C2424.27 42.3227 2425.02 42.291 2425.89 42.2542C2427.21 42.1982 2428.86 42.1284 2430.26 42.1284C2431.76 42.1284 2432.68 42.2109 2433 42.3734C2434.21 43.0028 2436 45.3435 2437.54 48.3364C2439.05 51.2406 2442.89 54.3174 2445.32 55.1283C2447.18 55.7484 2447.47 57.3986 2447.92 59.8965C2448.03 60.5332 2448.16 61.2547 2448.33 62.0118C2448.89 64.5498 2449.2 64.892 2449.43 64.892C2449.63 64.892 2449.76 64.6344 2449.85 64.0567C2449.86 63.9757 2449.87 63.8991 2449.88 63.8271C2450.72 66.7423 2451.16 67.118 2451.45 67.118C2451.51 67.118 2451.56 67.0911 2451.6 67.0421C2451.77 66.8221 2451.6 66.0999 2451.31 64.9396C2451.16 64.3337 2450.95 63.5234 2450.98 63.2871C2451.21 63.5111 2451.84 64.6703 2452.3 65.5335C2453.36 67.4973 2453.73 68.1087 2453.97 68.1087C2454 68.1087 2454.03 68.1013 2454.05 68.0872C2454.3 67.9347 2454.06 67.2416 2453.36 65.4449C2452.99 64.4991 2452.61 63.5216 2452.56 63.0991C2452.78 63.2583 2453.31 63.9388 2453.7 64.4495C2454.52 65.508 2454.91 65.972 2455.12 65.9719C2455.17 65.9719 2455.21 65.9526 2455.24 65.9179C2455.28 65.8624 2455.3 65.7754 2455.27 65.6357C2455.18 65.057 2454.4 63.2879 2453.58 61.415C2452.87 59.8091 2452.15 58.1484 2451.97 57.4935C2451.6 56.0545 2449.39 50.6031 2448.72 49.2674C2448.27 48.3792 2449.91 47.3603 2451.1 46.6162C2451.63 46.2896 2452.08 46.0075 2452.31 45.7737C2452.69 45.3967 2453.11 45.2108 2453.55 45.0138C2453.99 44.8179 2454.45 44.6152 2454.85 44.2107C2455.4 43.6673 2455.49 43.2101 2455.58 42.7679C2455.62 42.5501 2455.66 42.3444 2455.75 42.1265C2455.88 41.8406 2456.29 41.676 2456.73 41.5017C2457.24 41.2975 2457.82 41.0659 2458.09 40.5731C2458.29 40.227 2458.4 39.8184 2458.51 39.4232C2458.68 38.8382 2458.84 38.2855 2459.2 38.1806C2459.91 37.9794 2461.02 37.2795 2461.23 36.5965L2461.26 36.4817C2461.47 35.8082 2461.95 34.2311 2463.14 32.5841C2463.53 32.0317 2463.66 31.7038 2463.55 31.4878Z" fill="white"/>
<path d="M2883.44 120.224L2819.75 172.731C2819.75 172.805 2819.73 172.914 2819.7 173.063C2819.66 173.21 2819.64 173.317 2819.64 173.393V226.563C2819.64 228.482 2820.34 230.146 2821.75 231.547C2823.15 232.949 2824.81 233.654 2826.73 233.654H2869.26V191.118H2897.62V233.656H2940.16C2942.08 233.656 2943.74 232.952 2945.14 231.547C2946.55 230.148 2947.25 228.483 2947.25 226.563V173.393C2947.25 173.099 2947.21 172.876 2947.14 172.731L2883.44 120.224Z" fill="white"/>
<path d="M2971.5 160.767L2947.25 140.607V95.4125C2947.25 94.3793 2946.92 93.5297 2946.25 92.8647C2945.59 92.2004 2944.74 91.8683 2943.7 91.8683H2922.43C2921.4 91.8683 2920.55 92.2004 2919.89 92.8647C2919.22 93.5297 2918.89 94.3797 2918.89 95.4125V117.013L2891.86 94.4146C2889.5 92.4945 2886.7 91.5347 2883.45 91.5347C2880.2 91.5347 2877.39 92.4945 2875.03 94.4146L2795.38 160.767C2794.64 161.357 2794.24 162.151 2794.16 163.148C2794.09 164.144 2794.35 165.015 2794.94 165.753L2801.81 173.95C2802.4 174.614 2803.17 175.02 2804.13 175.169C2805.02 175.243 2805.9 174.984 2806.79 174.394L2883.44 110.477L2960.1 174.393C2960.69 174.909 2961.46 175.166 2962.42 175.166H2962.76C2963.71 175.02 2964.49 174.611 2965.08 173.948L2971.95 165.752C2972.54 165.013 2972.8 164.144 2972.72 163.147C2972.65 162.152 2972.24 161.358 2971.5 160.767Z" fill="white"/>
<path d="M1932.55 115.886L1868.86 168.393C1868.86 168.467 1868.84 168.576 1868.8 168.725C1868.76 168.872 1868.74 168.979 1868.74 169.055V222.225C1868.74 224.144 1869.45 225.808 1870.85 227.209C1872.25 228.611 1873.91 229.316 1875.83 229.316H1918.37V186.779H1946.73V229.318H1989.26C1991.18 229.318 1992.84 228.614 1994.25 227.209C1995.65 225.809 1996.35 224.145 1996.35 222.225V169.055C1996.35 168.76 1996.31 168.538 1996.24 168.393L1932.55 115.886Z" fill="white"/>
<path d="M2020.61 156.429L1996.35 136.269V91.0744C1996.35 90.0412 1996.02 89.1915 1995.35 88.5265C1994.69 87.8623 1993.84 87.5302 1992.81 87.5302H1971.54C1970.5 87.5302 1969.65 87.8623 1968.99 88.5265C1968.33 89.1915 1967.99 90.0416 1967.99 91.0744V112.674L1940.97 90.0765C1938.61 88.1564 1935.8 87.1965 1932.55 87.1965C1929.3 87.1965 1926.49 88.1564 1924.13 90.0765L1844.48 156.429C1843.75 157.019 1843.34 157.813 1843.27 158.81C1843.19 159.806 1843.45 160.677 1844.04 161.414L1850.91 169.612C1851.5 170.276 1852.27 170.682 1853.24 170.831C1854.12 170.905 1855.01 170.646 1855.89 170.056L1932.55 106.139L2009.2 170.055C2009.79 170.57 2010.57 170.828 2011.53 170.828H2011.86C2012.82 170.682 2013.59 170.273 2014.19 169.61L2021.05 161.414C2021.64 160.675 2021.9 159.806 2021.83 158.808C2021.75 157.814 2021.35 157.02 2020.61 156.429Z" fill="white"/>
<path d="M3161.38 152.33L3120.79 185.79C3120.79 185.838 3120.78 185.907 3120.75 186.002C3120.73 186.096 3120.72 186.164 3120.72 186.213V220.094C3120.72 221.318 3121.16 222.378 3122.06 223.271C3122.95 224.164 3124.01 224.613 3125.23 224.613H3152.34V197.507H3170.41V224.614H3197.52C3198.74 224.614 3199.8 224.166 3200.69 223.271C3201.59 222.379 3202.04 221.318 3202.04 220.094V186.213C3202.04 186.025 3202.01 185.883 3201.96 185.79L3161.38 152.33Z" fill="white"/>
<path d="M3217.49 178.167L3202.03 165.32V136.52C3202.03 135.861 3201.82 135.32 3201.4 134.896C3200.98 134.473 3200.44 134.261 3199.78 134.261H3186.22C3185.56 134.261 3185.02 134.473 3184.6 134.896C3184.18 135.32 3183.96 135.861 3183.96 136.52V150.284L3166.74 135.884C3165.24 134.66 3163.45 134.048 3161.38 134.048C3159.31 134.048 3157.52 134.66 3156.01 135.884L3105.26 178.167C3104.79 178.543 3104.53 179.048 3104.48 179.684C3104.43 180.319 3104.6 180.873 3104.98 181.344L3109.35 186.567C3109.73 186.99 3110.22 187.249 3110.83 187.344C3111.4 187.392 3111.96 187.226 3112.53 186.85L3161.38 146.119L3210.22 186.85C3210.6 187.178 3211.09 187.342 3211.7 187.342H3211.92C3212.53 187.249 3213.02 186.989 3213.4 186.566L3217.78 181.343C3218.15 180.872 3218.32 180.318 3218.27 179.683C3218.22 179.049 3217.96 178.543 3217.49 178.167Z" fill="white"/>
<path d="M1744.49 173.361L1720.46 193.173C1720.46 193.201 1720.45 193.242 1720.44 193.298C1720.42 193.354 1720.42 193.394 1720.42 193.423V213.485C1720.42 214.21 1720.68 214.838 1721.21 215.366C1721.74 215.895 1722.37 216.161 1723.09 216.161H1739.14V200.111H1749.84V216.162H1765.89C1766.61 216.162 1767.24 215.896 1767.77 215.366C1768.3 214.838 1768.57 214.21 1768.57 213.485V193.423C1768.57 193.312 1768.55 193.228 1768.52 193.173L1744.49 173.361Z" fill="white"/>
<path d="M1777.72 188.659L1768.57 181.052V163.999C1768.57 163.609 1768.44 163.288 1768.19 163.037C1767.94 162.787 1767.62 162.661 1767.23 162.661H1759.2C1758.81 162.661 1758.49 162.787 1758.24 163.037C1757.99 163.288 1757.87 163.609 1757.87 163.999V172.149L1747.67 163.622C1746.78 162.898 1745.72 162.535 1744.49 162.535C1743.26 162.535 1742.21 162.898 1741.31 163.622L1711.26 188.659C1710.98 188.881 1710.83 189.181 1710.8 189.557C1710.77 189.933 1710.87 190.262 1711.09 190.54L1713.69 193.633C1713.91 193.884 1714.2 194.037 1714.56 194.093C1714.9 194.121 1715.23 194.023 1715.57 193.801L1744.49 169.683L1773.41 193.8C1773.64 193.995 1773.93 194.092 1774.29 194.092H1774.42C1774.78 194.037 1775.07 193.882 1775.29 193.632L1777.89 190.54C1778.11 190.261 1778.21 189.933 1778.18 189.557C1778.15 189.181 1778 188.882 1777.72 188.659Z" fill="white"/>
<path d="M2613.5 186.476L2604.89 180.997C2604.34 180.645 2603.69 179.745 2603.53 179.109L2601.15 169.682C2601.14 169.663 2601.14 169.645 2601.13 169.626C2600.92 168.548 2599.97 167.732 2598.83 167.732H2587.23C2586.67 167.732 2586.15 167.943 2585.75 168.279C2585.69 168.311 2585.63 168.34 2585.59 168.375L2577.33 174.233C2576.38 174.902 2575.81 176.319 2576.02 177.457L2578.58 191.108C2578.8 192.28 2579.91 193.198 2581.11 193.198L2582.42 193.128C2583.05 193.093 2583.63 192.798 2584.01 192.32C2584.39 191.842 2584.55 191.211 2584.45 190.587L2582.66 180.058C2582.57 179.506 2582.9 178.709 2583.36 178.386L2584.89 177.312V193.119L2584.58 201.717C2584.54 202.706 2584.07 204.254 2583.56 205.098L2575.75 217.78C2575.34 218.443 2575.25 219.202 2575.51 219.861C2575.76 220.52 2576.33 221.023 2577.08 221.24L2579.53 221.952C2579.8 222.032 2580.09 222.072 2580.39 222.072C2581.61 222.072 2582.81 221.401 2583.39 220.4L2590.83 207.515C2591.45 206.445 2592.03 204.645 2592.15 203.416L2592.84 196.372H2594.57L2597.24 203.186C2597.59 204.106 2597.77 205.707 2597.62 206.683L2595.5 220.183C2595.39 220.908 2595.56 221.583 2595.99 222.083C2596.41 222.568 2597.01 222.835 2597.7 222.835C2597.83 222.835 2597.95 222.826 2598.08 222.808L2600.6 222.459C2602.07 222.255 2603.36 220.949 2603.54 219.485L2605.25 205.953C2605.4 204.724 2605.22 202.84 2604.84 201.662L2601.18 190.452V186.235L2610.43 191.565C2610.79 191.77 2611.2 191.878 2611.61 191.878C2612.44 191.878 2613.23 191.438 2613.65 190.73L2614.26 189.719C2614.92 188.618 2614.58 187.164 2613.5 186.476Z" fill="white"/>
<path d="M2592.25 165.744C2596.92 165.744 2600.72 161.943 2600.72 157.271C2600.72 152.599 2596.92 148.798 2592.25 148.798C2587.58 148.798 2583.78 152.599 2583.78 157.271C2583.78 161.943 2587.58 165.744 2592.25 165.744Z" fill="white"/>
<path d="M3561.57 89.3333C3562.72 90.8629 3564.47 91.6689 3566.25 91.6689C3567.47 91.6689 3568.71 91.285 3569.76 90.4927C3572.35 88.5502 3572.86 84.8798 3570.92 82.2974C3567.06 77.1538 3564.93 70.7791 3564.93 64.345C3564.93 57.463 3567.33 50.7394 3571.69 45.416C3573.74 42.9158 3573.37 39.2273 3570.87 37.178C3568.37 35.1303 3564.68 35.496 3562.63 37.9962C3556.56 45.4069 3553.22 54.7647 3553.22 64.345C3553.22 73.3022 3556.18 82.1755 3561.57 89.3333Z" fill="white"/>
<path d="M3549.06 107.378C3550.36 107.378 3551.67 106.949 3552.75 106.067C3555.26 104.028 3555.64 100.341 3553.6 97.8331C3545.93 88.3976 3541.71 76.5045 3541.71 64.3448C3541.71 51.6229 3546.28 39.3108 3554.59 29.6757C3556.7 27.2288 3556.43 23.5326 3553.98 21.4209C3551.53 19.3108 3547.84 19.5835 3545.73 22.0304C3535.59 33.7894 3530 48.818 3530 64.3463C3530 79.186 3535.16 93.7012 3544.52 105.218C3545.68 106.641 3547.36 107.378 3549.06 107.378Z" fill="white"/>
<path d="M3624.68 64.345C3624.68 70.7791 3622.55 77.1553 3618.68 82.2974C3616.74 84.8814 3617.26 88.5502 3619.84 90.4927C3620.89 91.285 3622.13 91.6689 3623.35 91.6689C3625.13 91.6689 3626.89 90.8629 3628.04 89.3333C3633.42 82.1755 3636.38 73.3006 3636.38 64.345C3636.38 54.7647 3633.04 45.4069 3626.97 37.9962C3624.92 35.496 3621.23 35.1303 3618.73 37.178C3616.23 39.2273 3615.86 42.9143 3617.91 45.4145C3622.27 50.741 3624.68 57.463 3624.68 64.345Z" fill="white"/>
<path d="M3647.89 64.3451C3647.89 76.5048 3643.67 88.3979 3636 97.8335C3633.96 100.341 3634.34 104.028 3636.85 106.067C3637.93 106.949 3639.24 107.379 3640.54 107.379C3642.24 107.379 3643.93 106.64 3645.08 105.217C3654.45 93.7015 3659.6 79.1863 3659.6 64.3451C3659.6 48.8168 3654.02 33.7897 3643.87 22.0307C3641.76 19.5823 3638.07 19.3096 3635.62 21.4213C3633.17 23.5314 3632.9 27.2277 3635.01 29.6761C3643.32 39.3112 3647.89 51.6232 3647.89 64.3451Z" fill="white"/>
<path d="M3649.83 207.993H3633.4L3603.49 80.5089C3609.23 77.4038 3613.15 71.3232 3613.15 64.3453C3613.15 54.2241 3604.91 45.9892 3594.79 45.9892C3584.67 45.9892 3576.44 54.2241 3576.44 64.3453C3576.44 71.3248 3580.35 77.4038 3586.1 80.5089L3556.19 207.993H3539.79C3536.55 207.993 3533.93 210.613 3533.93 213.846C3533.93 217.078 3536.55 219.698 3539.79 219.698H3649.83C3653.06 219.698 3655.68 217.078 3655.68 213.846C3655.68 210.613 3653.06 207.993 3649.83 207.993ZM3610.32 160.908L3587.94 147.563L3604.87 137.646L3610.32 160.908ZM3594.79 57.6964C3598.46 57.6964 3601.44 60.6795 3601.44 64.3453C3601.44 68.0125 3598.46 70.9957 3594.79 70.9957C3591.13 70.9957 3588.14 68.0125 3588.14 64.3453C3588.14 60.6795 3591.13 57.6964 3594.79 57.6964ZM3594.79 94.7025L3602.07 125.718L3585.2 135.604L3594.79 94.7025ZM3580.27 156.616L3607.66 172.95L3571.4 194.401L3580.27 156.616ZM3571.42 207.993L3615.28 182.045L3621.37 207.993H3571.42Z" fill="white"/>
</svg>
