<svg width="3522" height="1417" viewBox="0 0 3522 1417" fill="none" xmlns="http://www.w3.org/2000/svg">
<path d="M3522 1087.63C3138 1087.63 2690.92 1559.87 2102.19 1373.43C1199.68 1087.63 1151.99 1647.36 0.000107289 1087.63V216L3522 216V1087.63Z" fill="white"/>
<path d="M1309.31 132.328C1306.11 130.012 1303.81 126.381 1304.21 122.82C1305.63 110.25 1297.93 99.514 1285.48 97.5551C1283.27 97.2068 1281.06 96.2576 1279.07 95.1898C1275.31 93.1762 1271.4 92.4347 1267.35 93.5638C1265.16 94.1741 1263.82 93.9017 1262.08 92.3287C1252.17 83.3539 1236.63 86.5614 1231.78 98.7424C1230.38 102.241 1228.32 104.283 1225.09 105.614C1224.37 105.911 1223.57 106.247 1223.06 106.796C1221.45 108.524 1219.91 108.098 1217.95 107.266C1205.34 101.891 1191.75 110.736 1191.22 124.413C1191.14 126.366 1190.33 128.487 1189.29 130.172C1185.54 136.207 1184.87 142.262 1187.39 148.536C1185.58 153.065 1187.16 158.713 1191.63 161.989C1196.53 165.586 1202.18 163.709 1206.51 160.228C1207.74 160.112 1208.98 159.863 1210.26 159.473C1212.8 158.693 1215.1 157.76 1217.25 158.8C1217.59 159.052 1217.94 159.277 1218.29 159.484C1218.39 159.563 1218.48 159.637 1218.58 159.725C1218.59 159.705 1218.6 159.689 1218.61 159.67C1219.32 160.051 1220.05 160.34 1220.8 160.561C1224.97 175.281 1233.92 188.174 1246.22 197.312C1245.47 206.315 1243.07 215.143 1238.6 223.793C1233.62 226.84 1227.54 224.636 1222.32 223.191C1217.71 221.913 1213.21 221.442 1208.61 222.912C1207.65 223.217 1207.21 223.97 1207.16 224.751C1207.16 224.773 1207.15 224.791 1207.14 224.814C1206.79 226.315 1206.44 227.816 1206.09 229.317C1205.77 230.721 1206.78 231.683 1207.88 231.872C1208.05 231.916 1208.23 231.946 1208.43 231.946H1293.69C1294.43 231.946 1294.96 231.617 1295.29 231.152C1295.79 230.768 1296.11 230.18 1296.11 229.519V226.4C1296.11 225.477 1295.48 224.687 1294.63 224.423C1294.31 224.15 1293.88 223.975 1293.34 223.975H1267.58C1266.3 222.496 1265 221.003 1263.65 219.526C1259.91 215.416 1258.26 210.841 1259.94 205.307C1260.52 203.384 1260.94 201.385 1261.19 199.39C1261.91 193.478 1262.58 187.539 1263.26 181.512C1271.9 180.689 1279.72 177.003 1285.79 170.748C1288.31 170.741 1290.57 169.995 1292.46 168.727L1293.21 168.492C1297.32 171.807 1303.66 172.149 1308.44 170.382C1312.88 168.744 1316.71 164.308 1316.85 159.43C1316.86 158.974 1316.84 158.522 1316.8 158.074C1320.25 149.181 1317.09 137.965 1309.31 132.328ZM1234.11 159.117C1234.16 159.098 1234.2 159.083 1234.25 159.065C1235.14 158.725 1236.7 159.115 1237.5 159.739C1238.63 160.621 1239.71 161.581 1240.75 162.559C1240.78 162.642 1240.78 162.719 1240.8 162.804C1242.4 168.151 1244 173.499 1245.6 178.846C1245.98 181.541 1246.23 184.219 1246.36 186.882C1238.08 180.075 1233.55 169.967 1234.11 159.117ZM1265.17 174.572C1265.54 173.675 1265.92 172.779 1266.31 171.887C1266.44 171.887 1266.57 171.887 1266.7 171.886C1266.7 171.577 1266.71 171.267 1266.72 170.957C1267.78 168.562 1268.95 166.221 1270.26 163.984C1271.93 165.455 1273.67 166.776 1275.52 167.854C1272.42 170.595 1268.94 172.845 1265.17 174.572Z" fill="white"/>
<path d="M2419.55 169.433C2417.63 168.04 2416.25 165.856 2416.49 163.715C2417.34 156.155 2412.71 149.699 2405.22 148.521C2403.89 148.311 2402.57 147.74 2401.37 147.098C2399.11 145.887 2396.76 145.441 2394.32 146.12C2393.01 146.487 2392.2 146.323 2391.15 145.377C2385.19 139.98 2375.85 141.909 2372.93 149.235C2372.09 151.339 2370.85 152.567 2368.9 153.367C2368.47 153.546 2367.99 153.748 2367.69 154.078C2366.72 155.117 2365.79 154.861 2364.61 154.361C2357.03 151.128 2348.85 156.447 2348.54 164.673C2348.49 165.847 2348 167.123 2347.37 168.136C2345.12 171.766 2344.72 175.407 2346.23 179.18C2345.14 181.904 2346.09 185.301 2348.78 187.271C2351.73 189.434 2355.13 188.305 2357.73 186.212C2358.47 186.142 2359.22 185.992 2359.99 185.758C2361.52 185.288 2362.9 184.727 2364.19 185.353C2364.39 185.505 2364.6 185.64 2364.82 185.764C2364.87 185.812 2364.93 185.856 2364.99 185.909C2365 185.897 2365 185.888 2365.01 185.876C2365.43 186.106 2365.88 186.279 2366.33 186.412C2368.83 195.264 2374.22 203.018 2381.61 208.514C2381.16 213.929 2379.72 219.237 2377.03 224.439C2374.04 226.272 2370.38 224.947 2367.24 224.078C2364.47 223.309 2361.76 223.026 2358.99 223.91C2358.42 224.093 2358.15 224.546 2358.12 225.016C2358.12 225.029 2358.12 225.04 2358.11 225.053C2357.9 225.956 2357.69 226.859 2357.48 227.762C2357.29 228.606 2357.89 229.185 2358.55 229.298C2358.66 229.325 2358.77 229.343 2358.89 229.343H2410.16C2410.61 229.343 2410.93 229.145 2411.13 228.865C2411.42 228.634 2411.62 228.281 2411.62 227.884V226.008C2411.62 225.452 2411.24 224.977 2410.73 224.818C2410.53 224.655 2410.28 224.549 2409.95 224.549H2394.46C2393.69 223.66 2392.9 222.762 2392.1 221.873C2389.84 219.402 2388.85 216.65 2389.86 213.322C2390.22 212.166 2390.47 210.964 2390.61 209.764C2391.05 206.208 2391.45 202.636 2391.86 199.012C2397.06 198.517 2401.76 196.3 2405.41 192.538C2406.93 192.535 2408.29 192.086 2409.42 191.323L2409.87 191.182C2412.34 193.175 2416.16 193.381 2419.03 192.318C2421.7 191.333 2424.01 188.665 2424.09 185.732C2424.1 185.458 2424.08 185.186 2424.06 184.916C2426.14 179.568 2424.24 172.823 2419.55 169.433ZM2374.33 185.543C2374.36 185.532 2374.38 185.523 2374.41 185.512C2374.95 185.308 2375.89 185.542 2376.37 185.918C2377.05 186.448 2377.7 187.026 2378.33 187.614C2378.34 187.663 2378.34 187.71 2378.36 187.761C2379.32 190.977 2380.28 194.193 2381.24 197.409C2381.47 199.03 2381.62 200.64 2381.7 202.242C2376.72 198.148 2373.99 192.069 2374.33 185.543ZM2393.01 194.838C2393.23 194.299 2393.46 193.76 2393.69 193.224C2393.77 193.224 2393.85 193.224 2393.93 193.223C2393.93 193.037 2393.93 192.851 2393.94 192.664C2394.58 191.224 2395.28 189.816 2396.07 188.471C2397.08 189.355 2398.12 190.15 2399.23 190.798C2397.37 192.446 2395.28 193.8 2393.01 194.838Z" fill="white"/>
<path d="M2483.61 161.19C2481.69 159.798 2480.31 157.614 2480.55 155.472C2481.4 147.913 2476.77 141.456 2469.28 140.278C2467.95 140.069 2466.63 139.498 2465.43 138.856C2463.17 137.645 2460.81 137.199 2458.38 137.878C2457.07 138.245 2456.26 138.081 2455.21 137.135C2449.25 131.737 2439.91 133.666 2436.99 140.992C2436.15 143.096 2434.91 144.324 2432.96 145.124C2432.53 145.303 2432.05 145.505 2431.75 145.835C2430.77 146.875 2429.85 146.618 2428.67 146.118C2421.09 142.886 2412.91 148.205 2412.6 156.43C2412.55 157.605 2412.06 158.881 2411.43 159.894C2409.18 163.523 2408.78 167.165 2410.29 170.938C2409.2 173.662 2410.15 177.058 2412.84 179.029C2415.79 181.191 2419.19 180.063 2421.79 177.969C2422.53 177.899 2423.28 177.75 2424.05 177.515C2425.58 177.046 2426.96 176.485 2428.25 177.11C2428.45 177.262 2428.66 177.397 2428.88 177.522C2428.93 177.569 2428.99 177.614 2429.05 177.667C2429.06 177.655 2429.06 177.645 2429.07 177.634C2429.49 177.863 2429.94 178.037 2430.39 178.169C2432.89 187.022 2438.28 194.776 2445.67 200.271C2445.22 205.686 2443.78 210.995 2441.09 216.197C2438.1 218.03 2434.44 216.704 2431.3 215.835C2428.53 215.066 2425.82 214.783 2423.05 215.667C2422.48 215.851 2422.21 216.304 2422.18 216.774C2422.18 216.787 2422.17 216.797 2422.17 216.811C2421.96 217.714 2421.75 218.617 2421.54 219.519C2421.35 220.364 2421.95 220.942 2422.61 221.056C2422.72 221.082 2422.83 221.1 2422.95 221.1H2474.22C2474.67 221.1 2474.99 220.903 2475.19 220.623C2475.48 220.392 2475.68 220.038 2475.68 219.641V217.765C2475.68 217.21 2475.3 216.735 2474.79 216.576C2474.59 216.412 2474.34 216.306 2474.01 216.306H2458.52C2457.75 215.417 2456.96 214.519 2456.16 213.631C2453.9 211.159 2452.91 208.408 2453.92 205.08C2454.27 203.924 2454.53 202.721 2454.67 201.521C2455.11 197.966 2455.51 194.394 2455.92 190.77C2461.12 190.275 2465.82 188.058 2469.47 184.296C2470.99 184.292 2472.35 183.843 2473.48 183.081L2473.93 182.94C2476.4 184.933 2480.22 185.139 2483.09 184.076C2485.76 183.091 2488.07 180.423 2488.15 177.49C2488.16 177.215 2488.14 176.943 2488.12 176.674C2490.2 171.326 2488.3 164.581 2483.61 161.19ZM2438.39 177.301C2438.42 177.29 2438.44 177.281 2438.47 177.27C2439.01 177.065 2439.95 177.3 2440.43 177.675C2441.11 178.206 2441.76 178.783 2442.39 179.371C2442.4 179.421 2442.4 179.467 2442.42 179.519C2443.38 182.734 2444.34 185.951 2445.3 189.166C2445.53 190.787 2445.68 192.397 2445.76 193.999C2440.78 189.905 2438.05 183.826 2438.39 177.301ZM2457.07 186.596C2457.29 186.057 2457.52 185.518 2457.75 184.981C2457.83 184.981 2457.91 184.981 2457.99 184.981C2457.99 184.795 2457.99 184.608 2458 184.422C2458.64 182.982 2459.34 181.574 2460.13 180.228C2461.14 181.113 2462.18 181.908 2463.29 182.556C2461.43 184.204 2459.34 185.557 2457.07 186.596Z" fill="white"/>
<path d="M2543.56 173.693C2542.14 172.668 2541.12 171.06 2541.3 169.484C2541.93 163.92 2538.52 159.167 2533.01 158.3C2532.03 158.146 2531.05 157.726 2530.17 157.253C2528.51 156.362 2526.78 156.033 2524.98 156.533C2524.02 156.803 2523.42 156.683 2522.65 155.986C2518.26 152.014 2511.39 153.433 2509.24 158.826C2508.62 160.374 2507.71 161.278 2506.27 161.867C2505.96 161.999 2505.6 162.148 2505.38 162.391C2504.66 163.156 2503.98 162.967 2503.12 162.599C2497.53 160.219 2491.52 164.135 2491.28 170.189C2491.25 171.054 2490.89 171.993 2490.43 172.739C2488.77 175.41 2488.47 178.091 2489.59 180.868C2488.78 182.873 2489.49 185.373 2491.46 186.823C2493.63 188.415 2496.13 187.585 2498.05 186.044C2498.59 185.992 2499.15 185.882 2499.71 185.71C2500.84 185.364 2501.85 184.951 2502.81 185.411C2502.96 185.523 2503.11 185.623 2503.27 185.714C2503.31 185.749 2503.35 185.782 2503.39 185.821C2503.4 185.812 2503.4 185.805 2503.41 185.797C2503.72 185.965 2504.05 186.093 2504.38 186.191C2506.22 192.707 2510.19 198.414 2515.63 202.46C2515.3 206.445 2514.24 210.353 2512.26 214.182C2510.05 215.531 2507.36 214.555 2505.05 213.916C2503.01 213.35 2501.02 213.142 2498.98 213.792C2498.56 213.927 2498.36 214.261 2498.34 214.606C2498.34 214.616 2498.33 214.624 2498.33 214.634C2498.18 215.299 2498.02 215.963 2497.87 216.627C2497.72 217.249 2498.17 217.675 2498.66 217.759C2498.73 217.778 2498.81 217.791 2498.9 217.791H2536.64C2536.97 217.791 2537.21 217.646 2537.35 217.44C2537.57 217.27 2537.72 217.009 2537.72 216.717V215.336C2537.72 214.928 2537.44 214.578 2537.06 214.461C2536.92 214.34 2536.73 214.263 2536.49 214.263H2525.08C2524.52 213.608 2523.94 212.947 2523.35 212.293C2521.69 210.474 2520.96 208.449 2521.7 205.999C2521.96 205.148 2522.15 204.263 2522.26 203.38C2522.57 200.763 2522.87 198.133 2523.17 195.466C2527 195.101 2530.46 193.469 2533.15 190.7C2534.26 190.698 2535.26 190.367 2536.1 189.806L2536.43 189.702C2538.25 191.169 2541.06 191.321 2543.17 190.538C2545.14 189.813 2546.84 187.85 2546.89 185.691C2546.9 185.488 2546.89 185.288 2546.87 185.09C2548.4 181.154 2547 176.189 2543.56 173.693ZM2510.27 185.552C2510.29 185.543 2510.31 185.537 2510.33 185.529C2510.73 185.378 2511.41 185.551 2511.77 185.827C2512.27 186.218 2512.75 186.643 2513.21 187.075C2513.22 187.112 2513.22 187.146 2513.23 187.184C2513.94 189.551 2514.65 191.919 2515.36 194.286C2515.53 195.479 2515.63 196.664 2515.69 197.843C2512.03 194.829 2510.02 190.355 2510.27 185.552ZM2524.02 192.393C2524.18 191.996 2524.35 191.6 2524.52 191.205C2524.58 191.205 2524.64 191.205 2524.7 191.204C2524.7 191.068 2524.7 190.931 2524.7 190.793C2525.18 189.733 2525.69 188.697 2526.27 187.706C2527.01 188.357 2527.78 188.942 2528.6 189.42C2527.23 190.633 2525.69 191.629 2524.02 192.393Z" fill="white"/>
<path d="M1480.29 74.978C1474.98 71.1314 1471.15 65.0982 1471.82 59.1819C1474.19 38.2992 1461.39 20.4634 1440.7 17.2091C1437.03 16.6304 1433.37 15.0534 1430.06 13.2796C1423.82 9.93425 1417.31 8.7023 1410.59 10.5782C1406.95 11.5921 1404.72 11.1395 1401.83 8.52618C1385.36 -6.38384 1359.56 -1.05511 1351.49 19.1815C1349.17 24.9937 1345.75 28.386 1340.38 30.5972C1339.18 31.0913 1337.86 31.6488 1337.01 32.5611C1334.33 35.4319 1331.77 34.7236 1328.53 33.3422C1307.56 24.4125 1284.98 39.1061 1284.11 61.8287C1283.99 65.0741 1282.64 68.5977 1280.9 71.396C1274.67 81.4231 1273.57 91.4824 1277.75 101.905C1274.74 109.43 1277.36 118.813 1284.78 124.256C1292.93 130.23 1302.32 127.113 1309.51 121.33C1311.55 121.136 1313.62 120.724 1315.74 120.076C1319.97 118.779 1323.79 117.229 1327.35 118.957C1327.92 119.376 1328.5 119.749 1329.09 120.093C1329.24 120.225 1329.4 120.347 1329.56 120.494C1329.58 120.461 1329.6 120.435 1329.62 120.402C1330.79 121.036 1332.01 121.516 1333.26 121.882C1340.18 146.337 1355.05 167.757 1375.48 182.938C1374.23 197.896 1370.25 212.561 1362.83 226.932C1354.55 231.994 1344.45 228.333 1335.78 225.932C1328.11 223.809 1320.65 223.027 1313 225.469C1311.41 225.975 1310.67 227.227 1310.6 228.525C1310.59 228.561 1310.57 228.59 1310.56 228.628C1309.98 231.122 1309.4 233.616 1308.82 236.109C1308.28 238.443 1309.96 240.04 1311.78 240.354C1312.07 240.427 1312.37 240.477 1312.7 240.477H1454.34C1455.58 240.477 1456.47 239.931 1457.01 239.158C1457.83 238.52 1458.37 237.543 1458.37 236.446V231.264C1458.37 229.73 1457.32 228.418 1455.91 227.979C1455.38 227.526 1454.67 227.234 1453.76 227.234H1410.97C1408.84 224.778 1406.68 222.298 1404.44 219.843C1398.22 213.015 1395.48 205.415 1398.27 196.221C1399.25 193.027 1399.94 189.705 1400.35 186.391C1401.54 176.57 1402.66 166.702 1403.79 156.69C1418.15 155.323 1431.14 149.198 1441.23 138.806C1445.41 138.796 1449.17 137.556 1452.3 135.45L1453.55 135.06C1460.38 140.567 1470.9 141.135 1478.86 138.198C1486.23 135.477 1492.6 128.107 1492.82 120.005C1492.84 119.246 1492.8 118.495 1492.74 117.75C1498.47 102.977 1493.23 84.3438 1480.29 74.978ZM1355.37 119.483C1355.45 119.452 1355.51 119.428 1355.59 119.397C1357.08 118.832 1359.66 119.48 1361 120.518C1362.88 121.982 1364.66 123.578 1366.4 125.202C1366.44 125.34 1366.44 125.468 1366.48 125.61C1369.14 134.493 1371.8 143.378 1374.46 152.261C1375.09 156.739 1375.5 161.186 1375.72 165.611C1361.96 154.302 1354.44 137.51 1355.37 119.483ZM1406.96 145.16C1407.59 143.67 1408.21 142.182 1408.86 140.7C1409.07 140.7 1409.29 140.7 1409.51 140.698C1409.51 140.185 1409.52 139.67 1409.54 139.154C1411.31 135.176 1413.25 131.286 1415.42 127.569C1418.2 130.013 1421.08 132.209 1424.16 134C1419.01 138.552 1413.24 142.29 1406.96 145.16Z" fill="white"/>
<path d="M1562.55 31.4878C1562.44 31.2839 1562.17 31.2603 1561.97 31.2603C1561.29 31.2603 1559.95 31.6101 1557.93 32.1397L1557.27 32.3125C1554.2 33.1137 1551.26 35.3805 1550 36.3483C1549.98 36.361 1549.97 36.3735 1549.95 36.3858C1551.1 34.8901 1554.13 30.2736 1553.88 29.7377C1553.85 29.6782 1553.79 29.6439 1553.73 29.6439C1553.45 29.6439 1553.14 29.9479 1552.58 30.4997C1551.79 31.2857 1550.46 32.6014 1548.06 34.1825C1546.52 35.1972 1544.85 36.6476 1543.39 37.9272C1541.5 39.5701 1539.73 41.1218 1538.89 41.1218C1538.73 41.1218 1538.61 41.0655 1538.53 40.9496C1537.44 39.4225 1536.32 38.6008 1535.2 38.5073C1534.96 38.4875 1534.71 38.467 1534.46 38.467C1533.52 38.467 1532.46 38.7264 1531.06 40.6077C1530.74 41.026 1527.72 41.371 1525.52 41.623C1524.34 41.7568 1523.33 41.8724 1522.8 41.9825C1522.5 42.0426 1522.37 42.0742 1522.39 42.1955C1522.4 42.3129 1522.51 42.3227 1522.85 42.3227C1523.27 42.3227 1524.02 42.291 1524.89 42.2542C1526.21 42.1982 1527.86 42.1284 1529.26 42.1284C1530.76 42.1284 1531.68 42.2109 1532 42.3734C1533.21 43.0028 1535 45.3435 1536.54 48.3364C1538.05 51.2406 1541.89 54.3174 1544.32 55.1283C1546.18 55.7484 1546.47 57.3986 1546.92 59.8965C1547.03 60.5332 1547.16 61.2547 1547.33 62.0118C1547.89 64.5498 1548.2 64.892 1548.43 64.892C1548.63 64.892 1548.76 64.6344 1548.85 64.0567C1548.86 63.9757 1548.87 63.8991 1548.88 63.8271C1549.72 66.7423 1550.16 67.118 1550.44 67.118C1550.51 67.118 1550.56 67.0911 1550.6 67.0421C1550.77 66.8221 1550.6 66.0999 1550.31 64.9396C1550.16 64.3337 1549.95 63.5234 1549.98 63.2871C1550.21 63.5111 1550.84 64.6703 1551.3 65.5335C1552.36 67.4973 1552.73 68.1087 1552.97 68.1087C1553 68.1087 1553.03 68.1013 1553.05 68.0872C1553.3 67.9347 1553.06 67.2416 1552.36 65.4449C1551.99 64.4991 1551.61 63.5216 1551.56 63.0991C1551.78 63.2583 1552.31 63.9388 1552.7 64.4495C1553.52 65.508 1553.91 65.972 1554.12 65.9719C1554.17 65.9719 1554.21 65.9526 1554.24 65.9179C1554.28 65.8624 1554.3 65.7754 1554.27 65.6357C1554.18 65.057 1553.4 63.2879 1552.58 61.415C1551.87 59.8091 1551.15 58.1484 1550.97 57.4935C1550.6 56.0545 1548.39 50.6031 1547.72 49.2674C1547.27 48.3792 1548.91 47.3603 1550.1 46.6162C1550.63 46.2896 1551.08 46.0075 1551.31 45.7737C1551.69 45.3967 1552.11 45.2108 1552.55 45.0138C1552.99 44.8179 1553.45 44.6152 1553.85 44.2107C1554.4 43.6673 1554.49 43.2101 1554.58 42.7679C1554.62 42.5501 1554.66 42.3444 1554.75 42.1265C1554.88 41.8406 1555.29 41.676 1555.73 41.5017C1556.24 41.2975 1556.82 41.0659 1557.09 40.5731C1557.29 40.227 1557.4 39.8184 1557.51 39.4232C1557.68 38.8382 1557.84 38.2855 1558.2 38.1806C1558.91 37.9794 1560.02 37.2795 1560.23 36.5965L1560.26 36.4817C1560.47 35.8082 1560.95 34.2311 1562.13 32.5841C1562.53 32.0317 1562.66 31.7038 1562.55 31.4878Z" fill="white"/>
<path d="M1982.44 120.224L1918.75 172.731C1918.75 172.805 1918.73 172.914 1918.7 173.063C1918.66 173.21 1918.64 173.317 1918.64 173.393V226.563C1918.64 228.482 1919.34 230.146 1920.75 231.547C1922.15 232.949 1923.81 233.654 1925.73 233.654H1968.26V191.118H1996.62V233.656H2039.16C2041.08 233.656 2042.74 232.952 2044.14 231.547C2045.55 230.148 2046.25 228.483 2046.25 226.563V173.393C2046.25 173.099 2046.21 172.876 2046.14 172.731L1982.44 120.224Z" fill="white"/>
<path d="M2070.51 160.767L2046.25 140.607V95.4125C2046.25 94.3793 2045.92 93.5297 2045.25 92.8647C2044.59 92.2004 2043.74 91.8683 2042.7 91.8683H2021.44C2020.4 91.8683 2019.55 92.2004 2018.89 92.8647C2018.22 93.5297 2017.89 94.3797 2017.89 95.4125V117.013L1990.86 94.4146C1988.5 92.4945 1985.7 91.5347 1982.45 91.5347C1979.2 91.5347 1976.39 92.4945 1974.03 94.4146L1894.38 160.767C1893.64 161.357 1893.24 162.151 1893.16 163.148C1893.09 164.144 1893.35 165.015 1893.94 165.753L1900.81 173.95C1901.4 174.614 1902.17 175.02 1903.13 175.169C1904.02 175.243 1904.91 174.984 1905.79 174.394L1982.44 110.477L2059.1 174.393C2059.69 174.909 2060.46 175.166 2061.42 175.166H2061.76C2062.72 175.02 2063.49 174.611 2064.08 173.948L2070.95 165.752C2071.54 165.013 2071.8 164.144 2071.72 163.147C2071.65 162.152 2071.24 161.358 2070.51 160.767Z" fill="white"/>
<path d="M1031.53 115.886L967.833 168.393C967.833 168.467 967.815 168.576 967.777 168.725C967.741 168.872 967.721 168.979 967.721 169.055V222.225C967.721 224.144 968.423 225.808 969.827 227.209C971.23 228.611 972.891 229.316 974.811 229.316H1017.35V186.779H1045.71V229.318H1088.24C1090.16 229.318 1091.82 228.614 1093.22 227.209C1094.63 225.809 1095.33 224.145 1095.33 222.225V169.055C1095.33 168.76 1095.29 168.538 1095.22 168.393L1031.53 115.886Z" fill="white"/>
<path d="M1119.59 156.429L1095.33 136.269V91.0744C1095.33 90.0412 1095 89.1915 1094.33 88.5265C1093.67 87.8623 1092.82 87.5302 1091.78 87.5302H1070.52C1069.48 87.5302 1068.63 87.8623 1067.97 88.5265C1067.3 89.1915 1066.97 90.0416 1066.97 91.0744V112.674L1039.94 90.0765C1037.58 88.1564 1034.78 87.1965 1031.53 87.1965C1028.28 87.1965 1025.47 88.1564 1023.11 90.0765L943.462 156.429C942.724 157.019 942.319 157.813 942.244 158.81C942.169 159.806 942.427 160.677 943.019 161.414L949.887 169.612C950.478 170.276 951.253 170.682 952.213 170.831C953.1 170.905 953.986 170.646 954.873 170.056L1031.53 106.139L1108.18 170.055C1108.77 170.57 1109.54 170.828 1110.5 170.828H1110.84C1111.8 170.682 1112.57 170.273 1113.16 169.61L1120.03 161.414C1120.62 160.675 1120.88 159.806 1120.8 158.808C1120.73 157.814 1120.32 157.02 1119.59 156.429Z" fill="white"/>
<path d="M2260.38 152.33L2219.79 185.79C2219.79 185.838 2219.78 185.907 2219.75 186.002C2219.73 186.096 2219.72 186.164 2219.72 186.213V220.094C2219.72 221.318 2220.16 222.378 2221.06 223.271C2221.95 224.164 2223.01 224.613 2224.24 224.613H2251.34V197.507H2269.41V224.614H2296.52C2297.74 224.614 2298.8 224.166 2299.69 223.271C2300.59 222.379 2301.04 221.318 2301.04 220.094V186.213C2301.04 186.025 2301.01 185.883 2300.97 185.79L2260.38 152.33Z" fill="white"/>
<path d="M2316.49 178.167L2301.03 165.32V136.52C2301.03 135.861 2300.82 135.32 2300.4 134.896C2299.98 134.473 2299.44 134.261 2298.78 134.261H2285.22C2284.56 134.261 2284.02 134.473 2283.6 134.896C2283.18 135.32 2282.96 135.861 2282.96 136.52V150.284L2265.74 135.884C2264.24 134.66 2262.45 134.048 2260.38 134.048C2258.31 134.048 2256.52 134.66 2255.01 135.884L2204.26 178.167C2203.79 178.543 2203.53 179.048 2203.48 179.684C2203.43 180.319 2203.6 180.873 2203.98 181.344L2208.35 186.567C2208.73 186.99 2209.22 187.249 2209.83 187.344C2210.4 187.392 2210.96 187.226 2211.53 186.85L2260.38 146.119L2309.22 186.85C2309.6 187.178 2310.09 187.342 2310.71 187.342H2310.92C2311.53 187.249 2312.02 186.989 2312.4 186.566L2316.78 181.343C2317.15 180.872 2317.32 180.318 2317.27 179.683C2317.22 179.049 2316.96 178.543 2316.49 178.167Z" fill="white"/>
<path d="M843.467 173.361L819.434 193.173C819.434 193.201 819.427 193.242 819.413 193.298C819.399 193.354 819.392 193.394 819.392 193.423V213.485C819.392 214.21 819.657 214.838 820.186 215.366C820.715 215.895 821.342 216.161 822.067 216.161H838.116V200.111H848.817V216.162H864.867C865.591 216.162 866.219 215.896 866.747 215.366C867.277 214.838 867.542 214.21 867.542 213.485V193.423C867.542 193.312 867.527 193.228 867.5 193.173L843.467 173.361Z" fill="white"/>
<path d="M876.695 188.659L867.542 181.052V163.999C867.542 163.609 867.416 163.288 867.165 163.037C866.915 162.787 866.595 162.661 866.204 162.661H858.179C857.789 162.661 857.469 162.787 857.217 163.037C856.967 163.288 856.842 163.609 856.842 163.999V172.149L846.644 163.622C845.753 162.898 844.694 162.535 843.468 162.535C842.242 162.535 841.183 162.898 840.291 163.622L810.238 188.659C809.96 188.881 809.807 189.181 809.779 189.557C809.75 189.933 809.848 190.262 810.071 190.54L812.662 193.633C812.886 193.884 813.178 194.037 813.54 194.093C813.875 194.121 814.209 194.023 814.544 193.801L843.467 169.683L872.39 193.8C872.614 193.995 872.906 194.092 873.268 194.092H873.394C873.755 194.037 874.047 193.882 874.271 193.632L876.863 190.54C877.086 190.261 877.184 189.933 877.155 189.557C877.126 189.181 876.973 188.882 876.695 188.659Z" fill="white"/>
<path d="M1712.5 186.476L1703.89 180.997C1703.34 180.645 1702.69 179.745 1702.53 179.109L1700.15 169.682C1700.14 169.663 1700.14 169.645 1700.13 169.626C1699.92 168.548 1698.97 167.732 1697.83 167.732H1686.23C1685.67 167.732 1685.15 167.943 1684.75 168.279C1684.69 168.311 1684.63 168.34 1684.59 168.375L1676.33 174.233C1675.38 174.902 1674.81 176.319 1675.02 177.457L1677.58 191.108C1677.8 192.28 1678.91 193.198 1680.11 193.198L1681.42 193.128C1682.05 193.093 1682.63 192.798 1683.01 192.32C1683.39 191.842 1683.55 191.211 1683.45 190.587L1681.66 180.058C1681.57 179.506 1681.9 178.709 1682.36 178.386L1683.89 177.312V193.119L1683.58 201.717C1683.54 202.706 1683.07 204.254 1682.56 205.098L1674.75 217.78C1674.34 218.443 1674.25 219.202 1674.51 219.861C1674.76 220.52 1675.33 221.023 1676.08 221.24L1678.53 221.952C1678.8 222.032 1679.09 222.072 1679.39 222.072C1680.61 222.072 1681.81 221.401 1682.39 220.4L1689.83 207.515C1690.45 206.445 1691.03 204.645 1691.15 203.416L1691.84 196.372H1693.57L1696.24 203.186C1696.59 204.106 1696.77 205.707 1696.62 206.683L1694.5 220.183C1694.39 220.908 1694.56 221.583 1694.99 222.083C1695.41 222.568 1696.01 222.835 1696.7 222.835C1696.83 222.835 1696.95 222.826 1697.08 222.808L1699.6 222.459C1701.07 222.255 1702.36 220.949 1702.54 219.485L1704.25 205.953C1704.4 204.724 1704.22 202.84 1703.84 201.662L1700.18 190.452V186.235L1709.43 191.565C1709.79 191.77 1710.2 191.878 1710.61 191.878C1711.44 191.878 1712.23 191.438 1712.65 190.73L1713.26 189.719C1713.92 188.618 1713.58 187.164 1712.5 186.476Z" fill="white"/>
<path d="M1691.25 165.744C1695.92 165.744 1699.72 161.943 1699.72 157.271C1699.72 152.599 1695.92 148.798 1691.25 148.798C1686.58 148.798 1682.78 152.599 1682.78 157.271C1682.78 161.943 1686.58 165.744 1691.25 165.744Z" fill="white"/>
<path d="M2660.57 89.3333C2661.72 90.8629 2663.47 91.6689 2665.25 91.6689C2666.47 91.6689 2667.71 91.285 2668.76 90.4927C2671.35 88.5502 2671.87 84.8798 2669.92 82.2974C2666.06 77.1538 2663.93 70.7791 2663.93 64.345C2663.93 57.463 2666.33 50.7394 2670.69 45.416C2672.74 42.9158 2672.37 39.2273 2669.87 37.178C2667.37 35.1303 2663.68 35.496 2661.63 37.9962C2655.56 45.4069 2652.22 54.7647 2652.22 64.345C2652.22 73.3022 2655.18 82.1755 2660.57 89.3333Z" fill="white"/>
<path d="M2648.06 107.378C2649.36 107.378 2650.67 106.949 2651.75 106.067C2654.26 104.028 2654.64 100.341 2652.6 97.8331C2644.93 88.3976 2640.71 76.5045 2640.71 64.3448C2640.71 51.6229 2645.28 39.3108 2653.59 29.6757C2655.7 27.2288 2655.43 23.5326 2652.98 21.4209C2650.54 19.3108 2646.84 19.5835 2644.73 22.0304C2634.59 33.7894 2629 48.818 2629 64.3463C2629 79.186 2634.16 93.7012 2643.52 105.218C2644.68 106.641 2646.36 107.378 2648.06 107.378Z" fill="white"/>
<path d="M2723.68 64.345C2723.68 70.7791 2721.55 77.1553 2717.68 82.2974C2715.74 84.8814 2716.26 88.5502 2718.84 90.4927C2719.89 91.285 2721.13 91.6689 2722.35 91.6689C2724.13 91.6689 2725.89 90.8629 2727.04 89.3333C2732.42 82.1755 2735.38 73.3006 2735.38 64.345C2735.38 54.7647 2732.04 45.4069 2725.97 37.9962C2723.92 35.496 2720.23 35.1303 2717.73 37.178C2715.23 39.2273 2714.86 42.9143 2716.91 45.4145C2721.28 50.741 2723.68 57.463 2723.68 64.345Z" fill="white"/>
<path d="M2746.89 64.3451C2746.89 76.5048 2742.67 88.3979 2735 97.8335C2732.96 100.341 2733.34 104.028 2735.85 106.067C2736.93 106.949 2738.24 107.379 2739.54 107.379C2741.24 107.379 2742.93 106.64 2744.08 105.217C2753.45 93.7015 2758.6 79.1863 2758.6 64.3451C2758.6 48.8168 2753.02 33.7897 2742.88 22.0307C2740.76 19.5823 2737.07 19.3096 2734.62 21.4213C2732.17 23.5314 2731.9 27.2277 2734.01 29.6761C2742.32 39.3112 2746.89 51.6232 2746.89 64.3451Z" fill="white"/>
<path d="M2748.83 207.993H2732.4L2702.49 80.5089C2708.23 77.4038 2712.15 71.3232 2712.15 64.3453C2712.15 54.2241 2703.91 45.9892 2693.79 45.9892C2683.67 45.9892 2675.44 54.2241 2675.44 64.3453C2675.44 71.3248 2679.35 77.4038 2685.1 80.5089L2655.19 207.993H2638.79C2635.56 207.993 2632.93 210.613 2632.93 213.846C2632.93 217.078 2635.56 219.698 2638.79 219.698H2748.83C2752.06 219.698 2754.68 217.078 2754.68 213.846C2754.68 210.613 2752.06 207.993 2748.83 207.993ZM2709.33 160.908L2686.94 147.563L2703.87 137.646L2709.33 160.908ZM2693.79 57.6964C2697.46 57.6964 2700.44 60.6795 2700.44 64.3453C2700.44 68.0125 2697.46 70.9957 2693.79 70.9957C2690.13 70.9957 2687.14 68.0125 2687.14 64.3453C2687.14 60.6795 2690.13 57.6964 2693.79 57.6964ZM2693.79 94.7025L2701.07 125.718L2684.2 135.604L2693.79 94.7025ZM2679.27 156.616L2706.67 172.95L2670.4 194.401L2679.27 156.616ZM2670.42 207.993L2714.28 182.045L2720.37 207.993H2670.42Z" fill="white"/>
</svg>
