<svg width="4368" height="1417" viewBox="0 0 4368 1417" fill="none" xmlns="http://www.w3.org/2000/svg">
<path d="M4368 1087.63C3891.77 1087.63 3337.3 1559.87 2607.15 1373.43C1487.85 1087.63 1428.7 1647.36 2.81509e-05 1087.63V216L4368 216V1087.63Z" fill="white"/>
<path d="M1558.31 132.328C1555.11 130.012 1552.81 126.381 1553.21 122.82C1554.63 110.25 1546.93 99.514 1534.48 97.5551C1532.26 97.2068 1530.06 96.2576 1528.07 95.1898C1524.31 93.1762 1520.4 92.4347 1516.35 93.5638C1514.16 94.1741 1512.82 93.9017 1511.08 92.3287C1501.17 83.3539 1485.63 86.5614 1480.77 98.7424C1479.38 102.241 1477.32 104.283 1474.09 105.614C1473.36 105.911 1472.57 106.247 1472.06 106.796C1470.45 108.524 1468.91 108.098 1466.95 107.266C1454.33 101.891 1440.75 110.736 1440.22 124.413C1440.14 126.366 1439.33 128.487 1438.29 130.172C1434.54 136.207 1433.87 142.262 1436.39 148.536C1434.58 153.065 1436.16 158.713 1440.62 161.989C1445.53 165.586 1451.18 163.709 1455.51 160.228C1456.73 160.112 1457.98 159.863 1459.26 159.473C1461.8 158.693 1464.1 157.76 1466.25 158.8C1466.59 159.052 1466.94 159.277 1467.29 159.484C1467.39 159.563 1467.48 159.637 1467.58 159.725C1467.59 159.705 1467.6 159.689 1467.61 159.67C1468.32 160.051 1469.05 160.34 1469.8 160.561C1473.97 175.281 1482.92 188.174 1495.22 197.312C1494.47 206.315 1492.07 215.143 1487.6 223.793C1482.62 226.84 1476.54 224.636 1471.32 223.191C1466.71 221.913 1462.21 221.442 1457.61 222.912C1456.65 223.217 1456.21 223.97 1456.16 224.751C1456.16 224.773 1456.15 224.791 1456.14 224.814C1455.79 226.315 1455.44 227.816 1455.09 229.317C1454.77 230.721 1455.78 231.683 1456.88 231.872C1457.05 231.916 1457.23 231.946 1457.43 231.946H1542.69C1543.43 231.946 1543.96 231.617 1544.29 231.152C1544.79 230.768 1545.11 230.18 1545.11 229.519V226.4C1545.11 225.477 1544.48 224.687 1543.63 224.423C1543.31 224.15 1542.88 223.975 1542.34 223.975H1516.58C1515.3 222.496 1513.99 221.003 1512.65 219.526C1508.91 215.416 1507.26 210.841 1508.94 205.307C1509.52 203.384 1509.94 201.385 1510.19 199.39C1510.9 193.478 1511.58 187.539 1512.26 181.512C1520.9 180.689 1528.72 177.003 1534.79 170.748C1537.31 170.741 1539.57 169.995 1541.45 168.727L1542.21 168.492C1546.32 171.807 1552.66 172.149 1557.44 170.382C1561.88 168.744 1565.71 164.308 1565.85 159.43C1565.86 158.974 1565.84 158.522 1565.8 158.074C1569.25 149.181 1566.09 137.965 1558.31 132.328ZM1483.11 159.117C1483.16 159.098 1483.2 159.083 1483.25 159.065C1484.14 158.725 1485.7 159.115 1486.5 159.739C1487.63 160.621 1488.71 161.581 1489.75 162.559C1489.77 162.642 1489.78 162.719 1489.8 162.804C1491.4 168.151 1493 173.499 1494.6 178.846C1494.98 181.541 1495.23 184.219 1495.36 186.882C1487.08 180.075 1482.55 169.967 1483.11 159.117ZM1514.17 174.572C1514.54 173.675 1514.92 172.779 1515.31 171.887C1515.44 171.887 1515.57 171.887 1515.7 171.886C1515.7 171.577 1515.71 171.267 1515.72 170.957C1516.78 168.562 1517.95 166.221 1519.26 163.984C1520.93 165.455 1522.67 166.776 1524.52 167.854C1521.42 170.595 1517.94 172.845 1514.17 174.572Z" fill="white"/>
<path d="M2668.55 169.433C2666.63 168.04 2665.25 165.856 2665.49 163.715C2666.34 156.155 2661.71 149.699 2654.22 148.521C2652.89 148.311 2651.57 147.74 2650.37 147.098C2648.11 145.887 2645.75 145.441 2643.32 146.12C2642 146.487 2641.2 146.323 2640.15 145.377C2634.19 139.98 2624.85 141.909 2621.93 149.235C2621.09 151.339 2619.85 152.567 2617.9 153.367C2617.47 153.546 2616.99 153.748 2616.68 154.078C2615.71 155.117 2614.79 154.861 2613.61 154.361C2606.02 151.128 2597.85 156.447 2597.54 164.673C2597.49 165.847 2597 167.123 2596.37 168.136C2594.12 171.766 2593.72 175.407 2595.23 179.18C2594.14 181.904 2595.09 185.301 2597.78 187.271C2600.73 189.434 2604.13 188.305 2606.73 186.212C2607.47 186.142 2608.22 185.992 2608.98 185.758C2610.52 185.288 2611.9 184.727 2613.19 185.353C2613.39 185.505 2613.6 185.64 2613.82 185.764C2613.87 185.812 2613.93 185.856 2613.99 185.909C2614 185.897 2614 185.888 2614.01 185.876C2614.43 186.106 2614.88 186.279 2615.33 186.412C2617.83 195.264 2623.22 203.018 2630.61 208.514C2630.16 213.929 2628.72 219.237 2626.03 224.439C2623.04 226.272 2619.38 224.947 2616.24 224.078C2613.46 223.309 2610.76 223.026 2607.99 223.91C2607.42 224.093 2607.15 224.546 2607.12 225.016C2607.12 225.029 2607.11 225.04 2607.11 225.053C2606.9 225.956 2606.69 226.859 2606.48 227.762C2606.28 228.606 2606.89 229.185 2607.55 229.298C2607.66 229.325 2607.77 229.343 2607.89 229.343H2659.16C2659.61 229.343 2659.93 229.145 2660.13 228.865C2660.42 228.634 2660.62 228.281 2660.62 227.884V226.008C2660.62 225.452 2660.24 224.977 2659.73 224.818C2659.53 224.655 2659.28 224.549 2658.95 224.549H2643.46C2642.69 223.66 2641.9 222.762 2641.1 221.873C2638.84 219.402 2637.85 216.65 2638.86 213.322C2639.21 212.166 2639.47 210.964 2639.61 209.764C2640.05 206.208 2640.45 202.636 2640.86 199.012C2646.06 198.517 2650.76 196.3 2654.41 192.538C2655.93 192.535 2657.29 192.086 2658.42 191.323L2658.87 191.182C2661.34 193.175 2665.15 193.381 2668.03 192.318C2670.7 191.333 2673.01 188.665 2673.09 185.732C2673.1 185.458 2673.08 185.186 2673.06 184.916C2675.13 179.568 2673.24 172.823 2668.55 169.433ZM2623.33 185.543C2623.36 185.532 2623.38 185.523 2623.41 185.512C2623.95 185.308 2624.89 185.542 2625.37 185.918C2626.05 186.448 2626.7 187.026 2627.33 187.614C2627.34 187.663 2627.34 187.71 2627.35 187.761C2628.32 190.977 2629.28 194.193 2630.24 197.409C2630.47 199.03 2630.62 200.64 2630.7 202.242C2625.72 198.148 2622.99 192.069 2623.33 185.543ZM2642.01 194.838C2642.23 194.299 2642.46 193.76 2642.69 193.224C2642.77 193.224 2642.85 193.224 2642.93 193.223C2642.93 193.037 2642.93 192.851 2642.94 192.664C2643.58 191.224 2644.28 189.816 2645.07 188.471C2646.07 189.355 2647.12 190.15 2648.23 190.798C2646.37 192.446 2644.28 193.8 2642.01 194.838Z" fill="white"/>
<path d="M2732.61 161.19C2730.69 159.798 2729.31 157.614 2729.55 155.472C2730.4 147.913 2725.77 141.456 2718.28 140.278C2716.95 140.069 2715.63 139.498 2714.43 138.856C2712.17 137.645 2709.81 137.199 2707.38 137.878C2706.06 138.245 2705.26 138.081 2704.21 137.135C2698.25 131.737 2688.91 133.666 2685.99 140.992C2685.15 143.096 2683.91 144.324 2681.96 145.124C2681.53 145.303 2681.05 145.505 2680.74 145.835C2679.77 146.875 2678.85 146.618 2677.67 146.118C2670.08 142.886 2661.91 148.205 2661.6 156.43C2661.55 157.605 2661.06 158.881 2660.43 159.894C2658.18 163.523 2657.78 167.165 2659.29 170.938C2658.2 173.662 2659.15 177.058 2661.84 179.029C2664.79 181.191 2668.19 180.063 2670.79 177.969C2671.53 177.899 2672.28 177.75 2673.04 177.515C2674.58 177.046 2675.96 176.485 2677.25 177.11C2677.45 177.262 2677.66 177.397 2677.88 177.522C2677.93 177.569 2677.99 177.614 2678.05 177.667C2678.06 177.655 2678.06 177.645 2678.07 177.634C2678.49 177.863 2678.94 178.037 2679.39 178.169C2681.89 187.022 2687.28 194.776 2694.67 200.271C2694.22 205.686 2692.78 210.995 2690.09 216.197C2687.1 218.03 2683.44 216.704 2680.3 215.835C2677.52 215.066 2674.82 214.783 2672.05 215.667C2671.48 215.851 2671.21 216.304 2671.18 216.774C2671.18 216.787 2671.17 216.797 2671.17 216.811C2670.96 217.714 2670.75 218.617 2670.54 219.519C2670.34 220.364 2670.95 220.942 2671.61 221.056C2671.72 221.082 2671.82 221.1 2671.95 221.1H2723.22C2723.67 221.1 2723.99 220.903 2724.19 220.623C2724.48 220.392 2724.68 220.038 2724.68 219.641V217.765C2724.68 217.21 2724.3 216.735 2723.79 216.576C2723.59 216.412 2723.34 216.306 2723.01 216.306H2707.52C2706.75 215.417 2705.96 214.519 2705.15 213.631C2702.9 211.159 2701.91 208.408 2702.92 205.08C2703.27 203.924 2703.53 202.721 2703.67 201.521C2704.11 197.966 2704.51 194.394 2704.92 190.77C2710.12 190.275 2714.82 188.058 2718.47 184.296C2719.99 184.292 2721.35 183.843 2722.48 183.081L2722.93 182.94C2725.4 184.933 2729.21 185.139 2732.09 184.076C2734.76 183.091 2737.07 180.423 2737.15 177.49C2737.16 177.215 2737.14 176.943 2737.12 176.674C2739.19 171.326 2737.3 164.581 2732.61 161.19ZM2687.39 177.301C2687.42 177.29 2687.44 177.281 2687.47 177.27C2688.01 177.065 2688.95 177.3 2689.43 177.675C2690.11 178.206 2690.76 178.783 2691.39 179.371C2691.4 179.421 2691.4 179.467 2691.41 179.519C2692.38 182.734 2693.34 185.951 2694.3 189.166C2694.53 190.787 2694.68 192.397 2694.76 193.999C2689.78 189.905 2687.05 183.826 2687.39 177.301ZM2706.07 186.596C2706.29 186.057 2706.52 185.518 2706.75 184.981C2706.83 184.981 2706.91 184.981 2706.99 184.981C2706.99 184.795 2706.99 184.608 2707 184.422C2707.64 182.982 2708.34 181.574 2709.13 180.228C2710.13 181.113 2711.18 181.908 2712.29 182.556C2710.43 184.204 2708.34 185.557 2706.07 186.596Z" fill="white"/>
<path d="M2792.56 173.693C2791.14 172.668 2790.12 171.06 2790.3 169.484C2790.93 163.92 2787.52 159.167 2782.01 158.3C2781.03 158.146 2780.05 157.726 2779.17 157.253C2777.51 156.362 2775.77 156.033 2773.98 156.533C2773.01 156.803 2772.42 156.683 2771.65 155.986C2767.26 152.014 2760.38 153.433 2758.24 158.826C2757.62 160.374 2756.71 161.278 2755.27 161.867C2754.95 161.999 2754.6 162.148 2754.38 162.391C2753.66 163.156 2752.98 162.967 2752.12 162.599C2746.53 160.219 2740.51 164.135 2740.28 170.189C2740.25 171.054 2739.89 171.993 2739.43 172.739C2737.77 175.41 2737.47 178.091 2738.59 180.868C2737.78 182.873 2738.48 185.373 2740.46 186.823C2742.63 188.415 2745.13 187.585 2747.05 186.044C2747.59 185.992 2748.15 185.882 2748.71 185.71C2749.84 185.364 2750.85 184.951 2751.8 185.411C2751.95 185.523 2752.11 185.623 2752.27 185.714C2752.31 185.749 2752.35 185.782 2752.39 185.821C2752.4 185.812 2752.4 185.805 2752.41 185.797C2752.72 185.965 2753.05 186.093 2753.38 186.191C2755.22 192.707 2759.18 198.414 2764.63 202.46C2764.3 206.445 2763.24 210.353 2761.26 214.182C2759.05 215.531 2756.36 214.555 2754.05 213.916C2752.01 213.35 2750.02 213.142 2747.98 213.792C2747.56 213.927 2747.36 214.261 2747.34 214.606C2747.34 214.616 2747.33 214.624 2747.33 214.634C2747.18 215.299 2747.02 215.963 2746.87 216.627C2746.72 217.249 2747.17 217.675 2747.66 217.759C2747.73 217.778 2747.81 217.791 2747.9 217.791H2785.64C2785.97 217.791 2786.21 217.646 2786.35 217.44C2786.57 217.27 2786.71 217.009 2786.71 216.717V215.336C2786.71 214.928 2786.43 214.578 2786.06 214.461C2785.92 214.34 2785.73 214.263 2785.49 214.263H2774.08C2773.52 213.608 2772.94 212.947 2772.35 212.293C2770.69 210.474 2769.96 208.449 2770.7 205.999C2770.96 205.148 2771.15 204.263 2771.25 203.38C2771.57 200.763 2771.87 198.133 2772.17 195.466C2776 195.101 2779.46 193.469 2782.15 190.7C2783.26 190.698 2784.26 190.367 2785.1 189.806L2785.43 189.702C2787.25 191.169 2790.05 191.321 2792.17 190.538C2794.14 189.813 2795.83 187.85 2795.89 185.691C2795.9 185.488 2795.89 185.288 2795.87 185.09C2797.4 181.154 2796 176.189 2792.56 173.693ZM2759.27 185.552C2759.29 185.543 2759.31 185.537 2759.33 185.529C2759.72 185.378 2760.41 185.551 2760.77 185.827C2761.27 186.218 2761.75 186.643 2762.21 187.075C2762.22 187.112 2762.22 187.146 2762.23 187.184C2762.94 189.551 2763.65 191.919 2764.36 194.286C2764.52 195.479 2764.63 196.664 2764.69 197.843C2761.03 194.829 2759.02 190.355 2759.27 185.552ZM2773.02 192.393C2773.18 191.996 2773.35 191.6 2773.52 191.205C2773.58 191.205 2773.64 191.205 2773.69 191.204C2773.69 191.068 2773.7 190.931 2773.7 190.793C2774.18 189.733 2774.69 188.697 2775.27 187.706C2776.01 188.357 2776.78 188.942 2777.6 189.42C2776.23 190.633 2774.69 191.629 2773.02 192.393Z" fill="white"/>
<path d="M1729.29 74.978C1723.98 71.1314 1720.15 65.0982 1720.82 59.1819C1723.19 38.2992 1710.39 20.4634 1689.7 17.2091C1686.03 16.6304 1682.37 15.0534 1679.06 13.2796C1672.82 9.93425 1666.31 8.7023 1659.59 10.5782C1655.95 11.5921 1653.72 11.1395 1650.83 8.52618C1634.36 -6.38384 1608.56 -1.05511 1600.49 19.1815C1598.17 24.9937 1594.75 28.386 1589.38 30.5972C1588.18 31.0913 1586.86 31.6488 1586.01 32.5611C1583.33 35.4319 1580.77 34.7236 1577.53 33.3422C1556.56 24.4125 1533.98 39.1061 1533.11 61.8287C1532.99 65.0741 1531.64 68.5977 1529.9 71.396C1523.67 81.4231 1522.57 91.4824 1526.75 101.905C1523.74 109.43 1526.36 118.813 1533.78 124.256C1541.93 130.23 1551.32 127.113 1558.51 121.33C1560.55 121.136 1562.62 120.724 1564.74 120.076C1568.97 118.779 1572.79 117.229 1576.35 118.957C1576.92 119.376 1577.5 119.749 1578.09 120.093C1578.24 120.225 1578.4 120.347 1578.56 120.494C1578.58 120.461 1578.6 120.435 1578.62 120.402C1579.79 121.036 1581.01 121.516 1582.26 121.882C1589.18 146.337 1604.05 167.757 1624.48 182.938C1623.23 197.896 1619.25 212.561 1611.83 226.932C1603.55 231.994 1593.45 228.333 1584.78 225.932C1577.11 223.809 1569.65 223.027 1562 225.469C1560.41 225.975 1559.67 227.227 1559.6 228.525C1559.59 228.561 1559.57 228.59 1559.56 228.628C1558.98 231.122 1558.4 233.616 1557.82 236.109C1557.28 238.443 1558.96 240.04 1560.78 240.354C1561.07 240.427 1561.37 240.477 1561.7 240.477H1703.34C1704.58 240.477 1705.47 239.931 1706.01 239.158C1706.83 238.52 1707.37 237.543 1707.37 236.446V231.264C1707.37 229.73 1706.32 228.418 1704.91 227.979C1704.38 227.526 1703.67 227.234 1702.76 227.234H1659.97C1657.84 224.778 1655.68 222.298 1653.44 219.843C1647.22 213.015 1644.48 205.415 1647.27 196.221C1648.25 193.027 1648.94 189.705 1649.35 186.391C1650.54 176.57 1651.66 166.702 1652.79 156.69C1667.15 155.323 1680.14 149.198 1690.23 138.806C1694.41 138.796 1698.17 137.556 1701.3 135.45L1702.55 135.06C1709.38 140.567 1719.9 141.135 1727.86 138.198C1735.23 135.477 1741.6 128.107 1741.82 120.005C1741.84 119.246 1741.8 118.495 1741.74 117.75C1747.47 102.977 1742.23 84.3438 1729.29 74.978ZM1604.37 119.483C1604.45 119.452 1604.51 119.428 1604.59 119.397C1606.08 118.832 1608.66 119.48 1610 120.518C1611.88 121.982 1613.66 123.578 1615.4 125.202C1615.44 125.34 1615.44 125.468 1615.48 125.61C1618.14 134.493 1620.8 143.378 1623.46 152.261C1624.09 156.739 1624.5 161.186 1624.72 165.611C1610.96 154.302 1603.44 137.51 1604.37 119.483ZM1655.96 145.16C1656.59 143.67 1657.21 142.182 1657.86 140.7C1658.07 140.7 1658.29 140.7 1658.51 140.698C1658.51 140.185 1658.52 139.67 1658.54 139.154C1660.31 135.176 1662.25 131.286 1664.42 127.569C1667.2 130.013 1670.08 132.209 1673.16 134C1668.01 138.552 1662.24 142.29 1655.96 145.16Z" fill="white"/>
<path d="M1811.55 31.4878C1811.44 31.2839 1811.17 31.2603 1810.97 31.2603C1810.29 31.2603 1808.95 31.6101 1806.93 32.1397L1806.27 32.3125C1803.2 33.1137 1800.26 35.3805 1799 36.3483C1798.98 36.361 1798.97 36.3735 1798.95 36.3858C1800.1 34.8901 1803.13 30.2736 1802.88 29.7377C1802.85 29.6782 1802.79 29.6439 1802.73 29.6439C1802.45 29.6439 1802.14 29.9479 1801.58 30.4997C1800.79 31.2857 1799.46 32.6014 1797.06 34.1825C1795.52 35.1972 1793.85 36.6476 1792.39 37.9272C1790.5 39.5701 1788.73 41.1218 1787.89 41.1218C1787.73 41.1218 1787.61 41.0655 1787.53 40.9496C1786.44 39.4225 1785.32 38.6008 1784.2 38.5073C1783.96 38.4875 1783.71 38.467 1783.46 38.467C1782.52 38.467 1781.46 38.7264 1780.06 40.6077C1779.74 41.026 1776.72 41.371 1774.52 41.623C1773.34 41.7568 1772.33 41.8724 1771.8 41.9825C1771.5 42.0426 1771.37 42.0742 1771.39 42.1955C1771.4 42.3129 1771.51 42.3227 1771.85 42.3227C1772.27 42.3227 1773.02 42.291 1773.89 42.2542C1775.21 42.1982 1776.86 42.1284 1778.26 42.1284C1779.76 42.1284 1780.68 42.2109 1781 42.3734C1782.21 43.0028 1784 45.3435 1785.54 48.3364C1787.05 51.2406 1790.89 54.3174 1793.32 55.1283C1795.18 55.7484 1795.47 57.3986 1795.92 59.8965C1796.03 60.5332 1796.16 61.2547 1796.33 62.0118C1796.89 64.5498 1797.2 64.892 1797.43 64.892C1797.63 64.892 1797.76 64.6344 1797.85 64.0567C1797.86 63.9757 1797.87 63.8991 1797.88 63.8271C1798.72 66.7423 1799.16 67.118 1799.44 67.118C1799.51 67.118 1799.56 67.0911 1799.6 67.0421C1799.77 66.8221 1799.6 66.0999 1799.31 64.9396C1799.16 64.3337 1798.95 63.5234 1798.98 63.2871C1799.21 63.5111 1799.84 64.6703 1800.3 65.5335C1801.36 67.4973 1801.73 68.1087 1801.97 68.1087C1802 68.1087 1802.03 68.1013 1802.05 68.0872C1802.3 67.9347 1802.06 67.2416 1801.36 65.4449C1800.99 64.4991 1800.61 63.5216 1800.56 63.0991C1800.78 63.2583 1801.31 63.9388 1801.7 64.4495C1802.52 65.508 1802.91 65.972 1803.12 65.9719C1803.17 65.9719 1803.21 65.9526 1803.24 65.9179C1803.28 65.8624 1803.3 65.7754 1803.27 65.6357C1803.18 65.057 1802.4 63.2879 1801.58 61.415C1800.87 59.8091 1800.15 58.1484 1799.97 57.4935C1799.6 56.0545 1797.39 50.6031 1796.72 49.2674C1796.27 48.3792 1797.91 47.3603 1799.1 46.6162C1799.63 46.2896 1800.08 46.0075 1800.31 45.7737C1800.69 45.3967 1801.11 45.2108 1801.55 45.0138C1801.99 44.8179 1802.45 44.6152 1802.85 44.2107C1803.4 43.6673 1803.49 43.2101 1803.58 42.7679C1803.62 42.5501 1803.66 42.3444 1803.75 42.1265C1803.88 41.8406 1804.29 41.676 1804.73 41.5017C1805.24 41.2975 1805.82 41.0659 1806.09 40.5731C1806.29 40.227 1806.4 39.8184 1806.51 39.4232C1806.68 38.8382 1806.84 38.2855 1807.2 38.1806C1807.91 37.9794 1809.02 37.2795 1809.23 36.5965L1809.26 36.4817C1809.47 35.8082 1809.95 34.2311 1811.13 32.5841C1811.53 32.0317 1811.66 31.7038 1811.55 31.4878Z" fill="white"/>
<path d="M2231.44 120.224L2167.75 172.731C2167.75 172.805 2167.73 172.914 2167.7 173.063C2167.66 173.21 2167.64 173.317 2167.64 173.393V226.563C2167.64 228.482 2168.34 230.146 2169.75 231.547C2171.15 232.949 2172.81 233.654 2174.73 233.654H2217.26V191.118H2245.62V233.656H2288.16C2290.08 233.656 2291.74 232.952 2293.14 231.547C2294.55 230.148 2295.25 228.483 2295.25 226.563V173.393C2295.25 173.099 2295.21 172.876 2295.14 172.731L2231.44 120.224Z" fill="white"/>
<path d="M2319.5 160.767L2295.25 140.607V95.4125C2295.25 94.3793 2294.92 93.5297 2294.25 92.8647C2293.59 92.2004 2292.74 91.8683 2291.7 91.8683H2270.43C2269.4 91.8683 2268.55 92.2004 2267.89 92.8647C2267.22 93.5297 2266.89 94.3797 2266.89 95.4125V117.013L2239.86 94.4146C2237.5 92.4945 2234.7 91.5347 2231.45 91.5347C2228.2 91.5347 2225.39 92.4945 2223.03 94.4146L2143.38 160.767C2142.64 161.357 2142.24 162.151 2142.16 163.148C2142.09 164.144 2142.35 165.015 2142.94 165.753L2149.81 173.95C2150.4 174.614 2151.17 175.02 2152.13 175.169C2153.02 175.243 2153.9 174.984 2154.79 174.394L2231.44 110.477L2308.1 174.393C2308.69 174.909 2309.46 175.166 2310.42 175.166H2310.76C2311.71 175.02 2312.49 174.611 2313.08 173.948L2319.95 165.752C2320.54 165.013 2320.8 164.144 2320.72 163.147C2320.65 162.152 2320.24 161.358 2319.5 160.767Z" fill="white"/>
<path d="M1280.52 115.886L1216.83 168.393C1216.83 168.467 1216.81 168.576 1216.78 168.725C1216.74 168.872 1216.72 168.979 1216.72 169.055V222.225C1216.72 224.144 1217.42 225.808 1218.83 227.209C1220.23 228.611 1221.89 229.316 1223.81 229.316H1266.34V186.779H1294.7V229.318H1337.24C1339.16 229.318 1340.82 228.614 1342.22 227.209C1343.63 225.809 1344.33 224.145 1344.33 222.225V169.055C1344.33 168.76 1344.29 168.538 1344.22 168.393L1280.52 115.886Z" fill="white"/>
<path d="M1368.58 156.429L1344.33 136.269V91.0744C1344.33 90.0412 1344 89.1915 1343.33 88.5265C1342.67 87.8623 1341.82 87.5302 1340.78 87.5302H1319.51C1318.48 87.5302 1317.63 87.8623 1316.97 88.5265C1316.3 89.1915 1315.97 90.0416 1315.97 91.0744V112.674L1288.94 90.0765C1286.58 88.1564 1283.78 87.1965 1280.53 87.1965C1277.28 87.1965 1274.47 88.1564 1272.11 90.0765L1192.46 156.429C1191.72 157.019 1191.32 157.813 1191.24 158.81C1191.17 159.806 1191.43 160.677 1192.02 161.414L1198.89 169.612C1199.48 170.276 1200.25 170.682 1201.21 170.831C1202.1 170.905 1202.98 170.646 1203.87 170.056L1280.52 106.139L1357.18 170.055C1357.77 170.57 1358.54 170.828 1359.5 170.828H1359.84C1360.79 170.682 1361.57 170.273 1362.16 169.61L1369.03 161.414C1369.62 160.675 1369.88 159.806 1369.8 158.808C1369.73 157.814 1369.32 157.02 1368.58 156.429Z" fill="white"/>
<path d="M2509.38 152.33L2468.79 185.79C2468.79 185.838 2468.78 185.907 2468.75 186.002C2468.73 186.096 2468.72 186.164 2468.72 186.213V220.094C2468.72 221.318 2469.16 222.378 2470.06 223.271C2470.95 224.164 2472.01 224.613 2473.23 224.613H2500.34V197.507H2518.41V224.614H2545.52C2546.74 224.614 2547.8 224.166 2548.69 223.271C2549.59 222.379 2550.04 221.318 2550.04 220.094V186.213C2550.04 186.025 2550.01 185.883 2549.96 185.79L2509.38 152.33Z" fill="white"/>
<path d="M2565.49 178.167L2550.03 165.32V136.52C2550.03 135.861 2549.82 135.32 2549.4 134.896C2548.98 134.473 2548.43 134.261 2547.78 134.261H2534.22C2533.56 134.261 2533.02 134.473 2532.6 134.896C2532.17 135.32 2531.96 135.861 2531.96 136.52V150.284L2514.74 135.884C2513.24 134.66 2511.45 134.048 2509.38 134.048C2507.31 134.048 2505.52 134.66 2504.01 135.884L2453.26 178.167C2452.79 178.543 2452.53 179.048 2452.48 179.684C2452.43 180.319 2452.6 180.873 2452.98 181.344L2457.35 186.567C2457.73 186.99 2458.22 187.249 2458.83 187.344C2459.4 187.392 2459.96 187.226 2460.53 186.85L2509.38 146.119L2558.22 186.85C2558.6 187.178 2559.09 187.342 2559.7 187.342H2559.92C2560.53 187.249 2561.02 186.989 2561.4 186.566L2565.78 181.343C2566.15 180.872 2566.32 180.318 2566.27 179.683C2566.22 179.049 2565.96 178.543 2565.49 178.167Z" fill="white"/>
<path d="M1092.47 173.361L1068.43 193.173C1068.43 193.201 1068.43 193.242 1068.41 193.298C1068.4 193.354 1068.39 193.394 1068.39 193.423V213.485C1068.39 214.21 1068.66 214.838 1069.19 215.366C1069.72 215.895 1070.34 216.161 1071.07 216.161H1087.12V200.111H1097.82V216.162H1113.87C1114.59 216.162 1115.22 215.896 1115.75 215.366C1116.28 214.838 1116.54 214.21 1116.54 213.485V193.423C1116.54 193.312 1116.53 193.228 1116.5 193.173L1092.47 173.361Z" fill="white"/>
<path d="M1125.69 188.659L1116.54 181.052V163.999C1116.54 163.609 1116.42 163.288 1116.16 163.037C1115.92 162.787 1115.59 162.661 1115.2 162.661H1107.18C1106.79 162.661 1106.47 162.787 1106.22 163.037C1105.97 163.288 1105.84 163.609 1105.84 163.999V172.149L1095.64 163.622C1094.75 162.898 1093.69 162.535 1092.47 162.535C1091.24 162.535 1090.18 162.898 1089.29 163.622L1059.24 188.659C1058.96 188.881 1058.81 189.181 1058.78 189.557C1058.75 189.933 1058.85 190.262 1059.07 190.54L1061.66 193.633C1061.89 193.884 1062.18 194.037 1062.54 194.093C1062.87 194.121 1063.21 194.023 1063.54 193.801L1092.47 169.683L1121.39 193.8C1121.61 193.995 1121.91 194.092 1122.27 194.092H1122.39C1122.76 194.037 1123.05 193.882 1123.27 193.632L1125.86 190.54C1126.09 190.261 1126.18 189.933 1126.15 189.557C1126.13 189.181 1125.97 188.882 1125.69 188.659Z" fill="white"/>
<path d="M1961.5 186.476L1952.89 180.997C1952.34 180.645 1951.69 179.745 1951.53 179.109L1949.15 169.682C1949.14 169.663 1949.14 169.645 1949.13 169.626C1948.92 168.548 1947.97 167.732 1946.83 167.732H1935.23C1934.67 167.732 1934.15 167.943 1933.75 168.279C1933.69 168.311 1933.63 168.34 1933.59 168.375L1925.33 174.233C1924.38 174.902 1923.81 176.319 1924.02 177.457L1926.58 191.108C1926.8 192.28 1927.91 193.198 1929.11 193.198L1930.42 193.128C1931.05 193.093 1931.63 192.798 1932.01 192.32C1932.39 191.842 1932.55 191.211 1932.45 190.587L1930.66 180.058C1930.57 179.506 1930.9 178.709 1931.36 178.386L1932.89 177.312V193.119L1932.58 201.717C1932.54 202.706 1932.08 204.254 1931.56 205.098L1923.75 217.78C1923.34 218.443 1923.25 219.202 1923.51 219.861C1923.76 220.52 1924.33 221.023 1925.08 221.24L1927.53 221.952C1927.8 222.032 1928.09 222.072 1928.39 222.072C1929.61 222.072 1930.81 221.401 1931.39 220.4L1938.83 207.515C1939.45 206.445 1940.03 204.645 1940.15 203.416L1940.84 196.372H1942.57L1945.24 203.186C1945.59 204.106 1945.77 205.707 1945.62 206.683L1943.5 220.183C1943.39 220.908 1943.56 221.583 1943.99 222.083C1944.41 222.568 1945.01 222.835 1945.7 222.835C1945.83 222.835 1945.95 222.826 1946.09 222.808L1948.6 222.459C1950.07 222.255 1951.36 220.949 1951.54 219.485L1953.25 205.953C1953.4 204.724 1953.22 202.84 1952.84 201.662L1949.18 190.452V186.235L1958.43 191.565C1958.79 191.77 1959.2 191.878 1959.61 191.878C1960.44 191.878 1961.23 191.438 1961.65 190.73L1962.26 189.719C1962.92 188.618 1962.58 187.164 1961.5 186.476Z" fill="white"/>
<path d="M1940.25 165.744C1944.92 165.744 1948.72 161.943 1948.72 157.271C1948.72 152.599 1944.92 148.798 1940.25 148.798C1935.58 148.798 1931.78 152.599 1931.78 157.271C1931.78 161.943 1935.58 165.744 1940.25 165.744Z" fill="white"/>
<path d="M2909.57 89.3333C2910.72 90.8629 2912.47 91.6689 2914.25 91.6689C2915.47 91.6689 2916.71 91.285 2917.76 90.4927C2920.34 88.5502 2920.86 84.8798 2918.92 82.2974C2915.06 77.1538 2912.93 70.7791 2912.93 64.345C2912.93 57.463 2915.33 50.7394 2919.69 45.416C2921.74 42.9158 2921.37 39.2273 2918.87 37.178C2916.37 35.1303 2912.68 35.496 2910.63 37.9962C2904.56 45.4069 2901.22 54.7647 2901.22 64.345C2901.22 73.3022 2904.18 82.1755 2909.57 89.3333Z" fill="white"/>
<path d="M2897.06 107.378C2898.36 107.378 2899.67 106.949 2900.75 106.067C2903.26 104.028 2903.64 100.341 2901.6 97.8331C2893.93 88.3976 2889.71 76.5045 2889.71 64.3448C2889.71 51.6229 2894.28 39.3108 2902.59 29.6757C2904.7 27.2288 2904.43 23.5326 2901.98 21.4209C2899.53 19.3108 2895.84 19.5835 2893.73 22.0304C2883.59 33.7894 2878 48.818 2878 64.3463C2878 79.186 2883.16 93.7012 2892.52 105.218C2893.67 106.641 2895.36 107.378 2897.06 107.378Z" fill="white"/>
<path d="M2972.68 64.345C2972.68 70.7791 2970.55 77.1553 2966.68 82.2974C2964.74 84.8814 2965.26 88.5502 2967.84 90.4927C2968.89 91.285 2970.13 91.6689 2971.35 91.6689C2973.13 91.6689 2974.88 90.8629 2976.04 89.3333C2981.42 82.1755 2984.38 73.3006 2984.38 64.345C2984.38 54.7647 2981.04 45.4069 2974.97 37.9962C2972.92 35.496 2969.23 35.1303 2966.73 37.178C2964.23 39.2273 2963.86 42.9143 2965.91 45.4145C2970.27 50.741 2972.68 57.463 2972.68 64.345Z" fill="white"/>
<path d="M2995.89 64.3451C2995.89 76.5048 2991.67 88.3979 2984 97.8335C2981.96 100.341 2982.34 104.028 2984.85 106.067C2985.93 106.949 2987.24 107.379 2988.54 107.379C2990.24 107.379 2991.93 106.64 2993.08 105.217C3002.45 93.7015 3007.6 79.1863 3007.6 64.3451C3007.6 48.8168 3002.02 33.7897 2991.87 22.0307C2989.76 19.5823 2986.07 19.3096 2983.62 21.4213C2981.17 23.5314 2980.9 27.2277 2983.01 29.6761C2991.32 39.3112 2995.89 51.6232 2995.89 64.3451Z" fill="white"/>
<path d="M2997.83 207.993H2981.4L2951.49 80.5089C2957.23 77.4038 2961.15 71.3232 2961.15 64.3453C2961.15 54.2241 2952.91 45.9892 2942.79 45.9892C2932.67 45.9892 2924.44 54.2241 2924.44 64.3453C2924.44 71.3248 2928.35 77.4038 2934.1 80.5089L2904.19 207.993H2887.79C2884.55 207.993 2881.93 210.613 2881.93 213.846C2881.93 217.078 2884.55 219.698 2887.79 219.698H2997.83C3001.06 219.698 3003.68 217.078 3003.68 213.846C3003.68 210.613 3001.06 207.993 2997.83 207.993ZM2958.32 160.908L2935.94 147.563L2952.87 137.646L2958.32 160.908ZM2942.79 57.6964C2946.46 57.6964 2949.44 60.6795 2949.44 64.3453C2949.44 68.0125 2946.46 70.9957 2942.79 70.9957C2939.13 70.9957 2936.14 68.0125 2936.14 64.3453C2936.14 60.6795 2939.13 57.6964 2942.79 57.6964ZM2942.79 94.7025L2950.07 125.718L2933.2 135.604L2942.79 94.7025ZM2928.27 156.616L2955.66 172.95L2919.4 194.401L2928.27 156.616ZM2919.42 207.993L2963.28 182.045L2969.37 207.993H2919.42Z" fill="white"/>
</svg>
