<svg width="2751" height="682" viewBox="0 0 2751 682" fill="none" xmlns="http://www.w3.org/2000/svg">
<path d="M2751 682C2451.06 682 2148 682 1673.4 682C949.435 682 943.451 682 -0.000405476 682V216L2751 216V682Z" fill="white"/>
<path d="M959.335 132.328C956.136 130.012 953.834 126.381 954.237 122.82C955.66 110.25 947.957 99.514 935.504 97.5551C933.292 97.2068 931.09 96.2576 929.097 95.1898C925.34 93.1762 921.424 92.4347 917.376 93.5638C915.189 94.1741 913.844 93.9017 912.106 92.3287C902.194 83.3539 886.659 86.5614 881.802 98.7424C880.408 102.241 878.346 104.283 875.114 105.614C874.392 105.911 873.6 106.247 873.088 106.796C871.474 108.524 869.936 108.098 867.982 107.266C855.362 101.891 841.773 110.736 841.247 124.413C841.172 126.366 840.362 128.487 839.314 130.172C835.563 136.207 834.899 142.262 837.418 148.536C835.604 153.065 837.186 158.713 841.652 161.989C846.553 165.586 852.205 163.709 856.536 160.228C857.762 160.112 859.01 159.863 860.284 159.473C862.83 158.693 865.129 157.76 867.276 158.8C867.616 159.052 867.965 159.277 868.319 159.484C868.414 159.563 868.509 159.637 868.603 159.725C868.616 159.705 868.626 159.689 868.639 159.67C869.346 160.051 870.079 160.34 870.829 160.561C874.995 175.281 883.948 188.174 896.243 197.312C895.494 206.315 893.097 215.143 888.632 223.793C883.647 226.84 877.566 224.636 872.347 223.191C867.733 221.913 863.24 221.442 858.634 222.912C857.68 223.217 857.236 223.97 857.19 224.751C857.183 224.773 857.174 224.791 857.169 224.814C856.819 226.315 856.47 227.816 856.121 229.317C855.794 230.721 856.806 231.683 857.903 231.872C858.074 231.916 858.256 231.946 858.458 231.946H943.713C944.46 231.946 944.992 231.617 945.322 231.152C945.813 230.768 946.138 230.18 946.138 229.519V226.4C946.138 225.477 945.506 224.687 944.66 224.423C944.336 224.15 943.909 223.975 943.365 223.975H917.605C916.325 222.496 915.022 221.003 913.677 219.526C909.934 215.416 908.283 210.841 909.965 205.307C910.55 203.384 910.971 201.385 911.214 199.39C911.932 193.478 912.604 187.539 913.285 181.512C921.931 180.689 929.749 177.003 935.819 170.748C938.337 170.741 940.598 169.995 942.482 168.727L943.238 168.492C947.346 171.807 953.683 172.149 958.47 170.382C962.905 168.744 966.741 164.308 966.875 159.43C966.887 158.974 966.864 158.522 966.825 158.074C970.278 149.181 967.12 137.965 959.335 132.328ZM884.137 159.117C884.186 159.098 884.226 159.083 884.275 159.065C885.168 158.725 886.725 159.115 887.528 159.739C888.662 160.621 889.733 161.581 890.781 162.559C890.802 162.642 890.803 162.719 890.829 162.804C892.429 168.151 894.03 173.499 895.63 178.846C896.011 181.541 896.254 184.219 896.386 186.882C888.108 180.075 883.579 169.967 884.137 159.117ZM915.196 174.572C915.57 173.675 915.945 172.779 916.335 171.887C916.465 171.887 916.596 171.887 916.726 171.886C916.726 171.577 916.733 171.267 916.744 170.957C917.812 168.562 918.978 166.221 920.288 163.984C921.957 165.455 923.695 166.776 925.547 167.854C922.447 170.595 918.971 172.845 915.196 174.572Z" fill="white"/>
<path d="M2069.55 169.433C2067.63 168.04 2066.25 165.856 2066.49 163.715C2067.34 156.155 2062.71 149.699 2055.22 148.521C2053.89 148.311 2052.57 147.74 2051.37 147.098C2049.11 145.887 2046.75 145.441 2044.32 146.12C2043 146.487 2042.2 146.323 2041.15 145.377C2035.19 139.98 2025.85 141.909 2022.93 149.235C2022.09 151.339 2020.85 152.567 2018.9 153.367C2018.47 153.546 2017.99 153.748 2017.69 154.078C2016.71 155.117 2015.79 154.861 2014.61 154.361C2007.03 151.128 1998.85 156.447 1998.54 164.673C1998.49 165.847 1998 167.123 1997.37 168.136C1995.12 171.766 1994.72 175.407 1996.23 179.18C1995.14 181.904 1996.09 185.301 1998.78 187.271C2001.73 189.434 2005.13 188.305 2007.73 186.212C2008.47 186.142 2009.22 185.992 2009.98 185.758C2011.52 185.288 2012.9 184.727 2014.19 185.353C2014.39 185.505 2014.6 185.64 2014.82 185.764C2014.87 185.812 2014.93 185.856 2014.99 185.909C2015 185.897 2015 185.888 2015.01 185.876C2015.43 186.106 2015.88 186.279 2016.33 186.412C2018.83 195.264 2024.22 203.018 2031.61 208.514C2031.16 213.929 2029.72 219.237 2027.03 224.439C2024.04 226.272 2020.38 224.947 2017.24 224.078C2014.46 223.309 2011.76 223.026 2008.99 223.91C2008.42 224.093 2008.15 224.546 2008.12 225.016C2008.12 225.029 2008.11 225.04 2008.11 225.053C2007.9 225.956 2007.69 226.859 2007.48 227.762C2007.28 228.606 2007.89 229.185 2008.55 229.298C2008.66 229.325 2008.77 229.343 2008.89 229.343H2060.16C2060.61 229.343 2060.93 229.145 2061.13 228.865C2061.42 228.634 2061.62 228.281 2061.62 227.884V226.008C2061.62 225.452 2061.24 224.977 2060.73 224.818C2060.53 224.655 2060.28 224.549 2059.95 224.549H2044.46C2043.69 223.66 2042.9 222.762 2042.1 221.873C2039.84 219.402 2038.85 216.65 2039.86 213.322C2040.21 212.166 2040.47 210.964 2040.61 209.764C2041.05 206.208 2041.45 202.636 2041.86 199.012C2047.06 198.517 2051.76 196.3 2055.41 192.538C2056.93 192.535 2058.29 192.086 2059.42 191.323L2059.87 191.182C2062.34 193.175 2066.16 193.381 2069.03 192.318C2071.7 191.333 2074.01 188.665 2074.09 185.732C2074.1 185.458 2074.08 185.186 2074.06 184.916C2076.13 179.568 2074.24 172.823 2069.55 169.433ZM2024.33 185.543C2024.36 185.532 2024.38 185.523 2024.41 185.512C2024.95 185.308 2025.89 185.542 2026.37 185.918C2027.05 186.448 2027.7 187.026 2028.33 187.614C2028.34 187.663 2028.34 187.71 2028.35 187.761C2029.32 190.977 2030.28 194.193 2031.24 197.409C2031.47 199.03 2031.62 200.64 2031.7 202.242C2026.72 198.148 2023.99 192.069 2024.33 185.543ZM2043.01 194.838C2043.23 194.299 2043.46 193.76 2043.69 193.224C2043.77 193.224 2043.85 193.224 2043.93 193.223C2043.93 193.037 2043.93 192.851 2043.94 192.664C2044.58 191.224 2045.28 189.816 2046.07 188.471C2047.07 189.355 2048.12 190.15 2049.23 190.798C2047.37 192.446 2045.28 193.8 2043.01 194.838Z" fill="white"/>
<path d="M2133.61 161.19C2131.69 159.798 2130.3 157.614 2130.55 155.472C2131.4 147.913 2126.77 141.456 2119.28 140.278C2117.95 140.069 2116.63 139.498 2115.43 138.856C2113.17 137.645 2110.81 137.199 2108.38 137.878C2107.06 138.245 2106.26 138.081 2105.21 137.135C2099.25 131.737 2089.91 133.666 2086.99 140.992C2086.15 143.096 2084.91 144.324 2082.96 145.124C2082.53 145.303 2082.05 145.505 2081.74 145.835C2080.77 146.875 2079.85 146.618 2078.67 146.118C2071.08 142.886 2062.91 148.205 2062.6 156.43C2062.55 157.605 2062.06 158.881 2061.43 159.894C2059.18 163.523 2058.78 167.165 2060.29 170.938C2059.2 173.662 2060.15 177.058 2062.84 179.029C2065.79 181.191 2069.19 180.063 2071.79 177.969C2072.53 177.899 2073.28 177.75 2074.04 177.515C2075.58 177.046 2076.96 176.485 2078.25 177.11C2078.45 177.262 2078.66 177.397 2078.88 177.522C2078.93 177.569 2078.99 177.614 2079.05 177.667C2079.06 177.655 2079.06 177.645 2079.07 177.634C2079.49 177.863 2079.93 178.037 2080.39 178.169C2082.89 187.022 2088.28 194.776 2095.67 200.271C2095.22 205.686 2093.78 210.995 2091.09 216.197C2088.1 218.03 2084.44 216.704 2081.3 215.835C2078.52 215.066 2075.82 214.783 2073.05 215.667C2072.48 215.851 2072.21 216.304 2072.18 216.774C2072.18 216.787 2072.17 216.797 2072.17 216.811C2071.96 217.714 2071.75 218.617 2071.54 219.519C2071.34 220.364 2071.95 220.942 2072.61 221.056C2072.72 221.082 2072.82 221.1 2072.95 221.1H2124.22C2124.67 221.1 2124.99 220.903 2125.19 220.623C2125.48 220.392 2125.68 220.038 2125.68 219.641V217.765C2125.68 217.21 2125.3 216.735 2124.79 216.576C2124.59 216.412 2124.34 216.306 2124.01 216.306H2108.52C2107.75 215.417 2106.96 214.519 2106.15 213.631C2103.9 211.159 2102.91 208.408 2103.92 205.08C2104.27 203.924 2104.53 202.721 2104.67 201.521C2105.11 197.966 2105.51 194.394 2105.92 190.77C2111.12 190.275 2115.82 188.058 2119.47 184.296C2120.99 184.292 2122.34 183.843 2123.48 183.081L2123.93 182.94C2126.4 184.933 2130.21 185.139 2133.09 184.076C2135.76 183.091 2138.07 180.423 2138.15 177.49C2138.16 177.215 2138.14 176.943 2138.12 176.674C2140.19 171.326 2138.3 164.581 2133.61 161.19ZM2088.39 177.301C2088.42 177.29 2088.44 177.281 2088.47 177.27C2089.01 177.065 2089.95 177.3 2090.43 177.675C2091.11 178.206 2091.76 178.783 2092.39 179.371C2092.4 179.421 2092.4 179.467 2092.41 179.519C2093.38 182.734 2094.34 185.951 2095.3 189.166C2095.53 190.787 2095.68 192.397 2095.76 193.999C2090.78 189.905 2088.05 183.826 2088.39 177.301ZM2107.07 186.596C2107.29 186.057 2107.52 185.518 2107.75 184.981C2107.83 184.981 2107.91 184.981 2107.99 184.981C2107.99 184.795 2107.99 184.608 2108 184.422C2108.64 182.982 2109.34 181.574 2110.13 180.228C2111.13 181.113 2112.18 181.908 2113.29 182.556C2111.43 184.204 2109.34 185.557 2107.07 186.596Z" fill="white"/>
<path d="M2193.56 173.693C2192.14 172.668 2191.12 171.06 2191.3 169.484C2191.93 163.92 2188.52 159.167 2183.01 158.3C2182.03 158.146 2181.05 157.726 2180.17 157.253C2178.51 156.362 2176.77 156.033 2174.98 156.533C2174.01 156.803 2173.42 156.683 2172.65 155.986C2168.26 152.014 2161.38 153.433 2159.23 158.826C2158.62 160.374 2157.7 161.278 2156.27 161.867C2155.95 161.999 2155.6 162.148 2155.38 162.391C2154.66 163.156 2153.98 162.967 2153.12 162.599C2147.53 160.219 2141.51 164.135 2141.28 170.189C2141.25 171.054 2140.89 171.993 2140.43 172.739C2138.77 175.41 2138.47 178.091 2139.59 180.868C2138.78 182.873 2139.48 185.373 2141.46 186.823C2143.63 188.415 2146.13 187.585 2148.05 186.044C2148.59 185.992 2149.15 185.882 2149.71 185.71C2150.84 185.364 2151.85 184.951 2152.8 185.411C2152.95 185.523 2153.11 185.623 2153.27 185.714C2153.31 185.749 2153.35 185.782 2153.39 185.821C2153.4 185.812 2153.4 185.805 2153.41 185.797C2153.72 185.965 2154.05 186.093 2154.38 186.191C2156.22 192.707 2160.18 198.414 2165.63 202.46C2165.3 206.445 2164.23 210.353 2162.26 214.182C2160.05 215.531 2157.36 214.555 2155.05 213.916C2153.01 213.35 2151.02 213.142 2148.98 213.792C2148.56 213.927 2148.36 214.261 2148.34 214.606C2148.34 214.616 2148.33 214.624 2148.33 214.634C2148.18 215.299 2148.02 215.963 2147.87 216.627C2147.72 217.249 2148.17 217.675 2148.65 217.759C2148.73 217.778 2148.81 217.791 2148.9 217.791H2186.64C2186.97 217.791 2187.21 217.646 2187.35 217.44C2187.57 217.27 2187.71 217.009 2187.71 216.717V215.336C2187.71 214.928 2187.43 214.578 2187.06 214.461C2186.92 214.34 2186.73 214.263 2186.49 214.263H2175.08C2174.52 213.608 2173.94 212.947 2173.34 212.293C2171.69 210.474 2170.96 208.449 2171.7 205.999C2171.96 205.148 2172.15 204.263 2172.25 203.38C2172.57 200.763 2172.87 198.133 2173.17 195.466C2177 195.101 2180.46 193.469 2183.15 190.7C2184.26 190.698 2185.26 190.367 2186.1 189.806L2186.43 189.702C2188.25 191.169 2191.05 191.321 2193.17 190.538C2195.14 189.813 2196.83 187.85 2196.89 185.691C2196.9 185.488 2196.89 185.288 2196.87 185.09C2198.4 181.154 2197 176.189 2193.56 173.693ZM2160.27 185.552C2160.29 185.543 2160.31 185.537 2160.33 185.529C2160.72 185.378 2161.41 185.551 2161.77 185.827C2162.27 186.218 2162.75 186.643 2163.21 187.075C2163.22 187.112 2163.22 187.146 2163.23 187.184C2163.94 189.551 2164.65 191.919 2165.36 194.286C2165.52 195.479 2165.63 196.664 2165.69 197.843C2162.03 194.829 2160.02 190.355 2160.27 185.552ZM2174.02 192.393C2174.18 191.996 2174.35 191.6 2174.52 191.205C2174.58 191.205 2174.64 191.205 2174.69 191.204C2174.69 191.068 2174.7 190.931 2174.7 190.793C2175.18 189.733 2175.69 188.697 2176.27 187.706C2177.01 188.357 2177.78 188.942 2178.6 189.42C2177.23 190.633 2175.69 191.629 2174.02 192.393Z" fill="white"/>
<path d="M1130.32 74.978C1125.01 71.1314 1121.18 65.0982 1121.85 59.1819C1124.22 38.2992 1111.42 20.4634 1090.73 17.2091C1087.06 16.6304 1083.4 15.0534 1080.09 13.2796C1073.85 9.93425 1067.34 8.7023 1060.61 10.5782C1056.98 11.5921 1054.75 11.1395 1051.86 8.52618C1035.39 -6.38384 1009.58 -1.05511 1001.52 19.1815C999.199 24.9937 995.774 28.386 990.404 30.5972C989.205 31.0913 987.889 31.6488 987.037 32.5611C984.357 35.4319 981.802 34.7236 978.555 33.3422C957.59 24.4125 935.012 39.1061 934.139 61.8287C934.015 65.0741 932.669 68.5977 930.928 71.396C924.696 81.4231 923.594 91.4824 927.777 101.905C924.765 109.43 927.392 118.813 934.813 124.256C942.955 130.23 952.344 127.113 959.54 121.33C961.577 121.136 963.65 120.724 965.766 120.076C969.996 118.779 973.815 117.229 977.381 118.957C977.946 119.376 978.527 119.749 979.115 120.093C979.273 120.225 979.43 120.347 979.587 120.494C979.608 120.461 979.625 120.435 979.646 120.402C980.82 121.036 982.038 121.516 983.286 121.882C990.205 146.337 1005.08 167.757 1025.51 182.938C1024.26 197.896 1020.28 212.561 1012.86 226.932C1004.58 231.994 994.478 228.333 985.807 225.932C978.141 223.809 970.678 223.027 963.024 225.469C961.441 225.975 960.703 227.227 960.625 228.525C960.615 228.561 960.599 228.59 960.59 228.628C960.01 231.122 959.43 233.616 958.849 236.109C958.307 238.443 959.988 240.04 961.81 240.354C962.095 240.427 962.397 240.477 962.732 240.477H1104.37C1105.61 240.477 1106.49 239.931 1107.04 239.158C1107.86 238.52 1108.4 237.543 1108.4 236.446V231.264C1108.4 229.73 1107.35 228.418 1105.94 227.979C1105.41 227.526 1104.7 227.234 1103.79 227.234H1061C1058.87 224.778 1056.7 222.298 1054.47 219.843C1048.25 213.015 1045.51 205.415 1048.3 196.221C1049.27 193.027 1049.97 189.705 1050.38 186.391C1051.57 176.57 1052.69 166.702 1053.82 156.69C1068.18 155.323 1081.17 149.198 1091.26 138.806C1095.44 138.796 1099.19 137.556 1102.33 135.45L1103.58 135.06C1110.41 140.567 1120.93 141.135 1128.89 138.198C1136.25 135.477 1142.63 128.107 1142.85 120.005C1142.87 119.246 1142.83 118.495 1142.77 117.75C1148.5 102.977 1143.26 84.3438 1130.32 74.978ZM1005.39 119.483C1005.48 119.452 1005.54 119.428 1005.62 119.397C1007.11 118.832 1009.69 119.48 1011.03 120.518C1012.91 121.982 1014.69 123.578 1016.43 125.202C1016.47 125.34 1016.47 125.468 1016.51 125.61C1019.17 134.493 1021.83 143.378 1024.49 152.261C1025.12 156.739 1025.53 161.186 1025.74 165.611C1011.99 154.302 1004.47 137.51 1005.39 119.483ZM1056.99 145.16C1057.62 143.67 1058.24 142.182 1058.89 140.7C1059.1 140.7 1059.32 140.7 1059.54 140.698C1059.54 140.185 1059.55 139.67 1059.57 139.154C1061.34 135.176 1063.28 131.286 1065.45 127.569C1068.23 130.013 1071.11 132.209 1074.19 134C1069.04 138.552 1063.26 142.29 1056.99 145.16Z" fill="white"/>
<path d="M1212.55 31.4878C1212.45 31.2839 1212.17 31.2603 1211.97 31.2603C1211.29 31.2603 1209.96 31.6101 1207.93 32.1397L1207.27 32.3125C1204.2 33.1137 1201.26 35.3805 1200 36.3483C1199.99 36.361 1199.97 36.3735 1199.96 36.3858C1201.1 34.8901 1204.13 30.2736 1203.88 29.7377C1203.85 29.6782 1203.8 29.6439 1203.73 29.6439C1203.45 29.6439 1203.14 29.9479 1202.59 30.4997C1201.79 31.2857 1200.46 32.6014 1198.06 34.1825C1196.52 35.1972 1194.86 36.6476 1193.39 37.9272C1191.51 39.5701 1189.73 41.1218 1188.89 41.1218C1188.73 41.1218 1188.62 41.0655 1188.53 40.9496C1187.44 39.4225 1186.32 38.6008 1185.2 38.5073C1184.96 38.4875 1184.72 38.467 1184.47 38.467C1183.53 38.467 1182.46 38.7264 1181.06 40.6077C1180.75 41.026 1177.73 41.371 1175.52 41.623C1174.35 41.7568 1173.34 41.8724 1172.8 41.9825C1172.51 42.0426 1172.38 42.0742 1172.39 42.1955C1172.4 42.3129 1172.51 42.3227 1172.86 42.3227C1173.27 42.3227 1174.02 42.291 1174.89 42.2542C1176.22 42.1982 1177.87 42.1284 1179.26 42.1284C1180.77 42.1284 1181.69 42.2109 1182 42.3734C1183.22 43.0028 1185 45.3435 1186.55 48.3364C1188.05 51.2406 1191.89 54.3174 1194.32 55.1283C1196.18 55.7484 1196.48 57.3986 1196.92 59.8965C1197.04 60.5332 1197.16 61.2547 1197.33 62.0118C1197.89 64.5498 1198.2 64.892 1198.44 64.892C1198.64 64.892 1198.77 64.6344 1198.86 64.0567C1198.87 63.9757 1198.88 63.8991 1198.89 63.8271C1199.72 66.7423 1200.16 67.118 1200.45 67.118C1200.51 67.118 1200.57 67.0911 1200.6 67.0421C1200.77 66.8221 1200.6 66.0999 1200.31 64.9396C1200.16 64.3337 1199.96 63.5234 1199.98 63.2871C1200.22 63.5111 1200.84 64.6703 1201.31 65.5335C1202.37 67.4973 1202.73 68.1087 1202.98 68.1087C1203 68.1087 1203.03 68.1013 1203.05 68.0872C1203.31 67.9347 1203.07 67.2416 1202.36 65.4449C1201.99 64.4991 1201.61 63.5216 1201.57 63.0991C1201.78 63.2583 1202.31 63.9388 1202.71 64.4495C1203.53 65.508 1203.91 65.972 1204.12 65.9719C1204.17 65.9719 1204.21 65.9526 1204.24 65.9179C1204.29 65.8624 1204.3 65.7754 1204.28 65.6357C1204.18 65.057 1203.4 63.2879 1202.58 61.415C1201.88 59.8091 1201.15 58.1484 1200.98 57.4935C1200.6 56.0545 1198.39 50.6031 1197.72 49.2674C1197.28 48.3792 1198.91 47.3603 1200.11 46.6162C1200.63 46.2896 1201.08 46.0075 1201.32 45.7737C1201.69 45.3967 1202.11 45.2108 1202.56 45.0138C1203 44.8179 1203.45 44.6152 1203.86 44.2107C1204.4 43.6673 1204.49 43.2101 1204.58 42.7679C1204.62 42.5501 1204.66 42.3444 1204.76 42.1265C1204.88 41.8406 1205.29 41.676 1205.73 41.5017C1206.24 41.2975 1206.82 41.0659 1207.1 40.5731C1207.29 40.227 1207.4 39.8184 1207.52 39.4232C1207.68 38.8382 1207.84 38.2855 1208.21 38.1806C1208.91 37.9794 1210.02 37.2795 1210.23 36.5965L1210.27 36.4817C1210.47 35.8082 1210.95 34.2311 1212.14 32.5841C1212.54 32.0317 1212.66 31.7038 1212.55 31.4878Z" fill="white"/>
<path d="M1632.44 120.224L1568.75 172.731C1568.75 172.805 1568.73 172.914 1568.7 173.063C1568.66 173.21 1568.64 173.317 1568.64 173.393V226.563C1568.64 228.482 1569.34 230.146 1570.75 231.547C1572.15 232.949 1573.81 233.654 1575.73 233.654H1618.26V191.118H1646.62V233.656H1689.16C1691.08 233.656 1692.74 232.952 1694.14 231.547C1695.55 230.148 1696.25 228.483 1696.25 226.563V173.393C1696.25 173.099 1696.21 172.876 1696.14 172.731L1632.44 120.224Z" fill="white"/>
<path d="M1720.5 160.767L1696.25 140.607V95.4125C1696.25 94.3793 1695.92 93.5297 1695.25 92.8647C1694.59 92.2004 1693.74 91.8683 1692.7 91.8683H1671.44C1670.4 91.8683 1669.55 92.2004 1668.89 92.8647C1668.22 93.5297 1667.89 94.3797 1667.89 95.4125V117.013L1640.86 94.4146C1638.5 92.4945 1635.7 91.5347 1632.45 91.5347C1629.2 91.5347 1626.39 92.4945 1624.03 94.4146L1544.38 160.767C1543.64 161.357 1543.24 162.151 1543.16 163.148C1543.09 164.144 1543.35 165.015 1543.94 165.753L1550.81 173.95C1551.4 174.614 1552.17 175.02 1553.13 175.169C1554.02 175.243 1554.9 174.984 1555.79 174.394L1632.44 110.477L1709.1 174.393C1709.69 174.909 1710.46 175.166 1711.42 175.166H1711.76C1712.71 175.02 1713.49 174.611 1714.08 173.948L1720.95 165.752C1721.54 165.013 1721.8 164.144 1721.72 163.147C1721.65 162.152 1721.24 161.358 1720.5 160.767Z" fill="white"/>
<path d="M681.551 115.886L617.859 168.393C617.859 168.467 617.84 168.576 617.803 168.725C617.766 168.872 617.747 168.979 617.747 169.055V222.225C617.747 224.144 618.449 225.808 619.852 227.209C621.255 228.611 622.916 229.316 624.836 229.316H667.371V186.779H695.731V229.318H738.265C740.185 229.318 741.848 228.614 743.249 227.209C744.652 225.809 745.357 224.145 745.357 222.225V169.055C745.357 168.76 745.316 168.538 745.245 168.393L681.551 115.886Z" fill="white"/>
<path d="M769.612 156.429L745.354 136.269V91.0744C745.354 90.0412 745.022 89.1915 744.356 88.5265C743.694 87.8623 742.845 87.5302 741.809 87.5302H720.542C719.507 87.5302 718.658 87.8623 717.993 88.5265C717.329 89.1915 716.997 90.0416 716.997 91.0744V112.674L689.97 90.0765C687.609 88.1564 684.803 87.1965 681.553 87.1965C678.303 87.1965 675.497 88.1564 673.134 90.0765L593.488 156.429C592.75 157.019 592.345 157.813 592.27 158.81C592.195 159.806 592.453 160.677 593.044 161.414L599.912 169.612C600.504 170.276 601.278 170.682 602.238 170.831C603.125 170.905 604.011 170.646 604.898 170.056L681.55 106.139L758.204 170.055C758.796 170.57 759.57 170.828 760.53 170.828H760.863C761.822 170.682 762.595 170.273 763.189 169.61L770.058 161.414C770.648 160.675 770.907 159.806 770.83 158.808C770.755 157.814 770.348 157.02 769.612 156.429Z" fill="white"/>
<path d="M1910.38 152.33L1869.79 185.79C1869.79 185.838 1869.78 185.907 1869.75 186.002C1869.73 186.096 1869.72 186.164 1869.72 186.213V220.094C1869.72 221.318 1870.16 222.378 1871.06 223.271C1871.95 224.164 1873.01 224.613 1874.23 224.613H1901.34V197.507H1919.41V224.614H1946.52C1947.74 224.614 1948.8 224.166 1949.69 223.271C1950.59 222.379 1951.04 221.318 1951.04 220.094V186.213C1951.04 186.025 1951.01 185.883 1950.96 185.79L1910.38 152.33Z" fill="white"/>
<path d="M1966.49 178.167L1951.03 165.32V136.52C1951.03 135.861 1950.82 135.32 1950.4 134.896C1949.98 134.473 1949.44 134.261 1948.78 134.261H1935.22C1934.56 134.261 1934.02 134.473 1933.6 134.896C1933.18 135.32 1932.96 135.861 1932.96 136.52V150.284L1915.74 135.884C1914.24 134.66 1912.45 134.048 1910.38 134.048C1908.31 134.048 1906.52 134.66 1905.01 135.884L1854.26 178.167C1853.79 178.543 1853.53 179.048 1853.48 179.684C1853.43 180.319 1853.6 180.873 1853.98 181.344L1858.35 186.567C1858.73 186.99 1859.22 187.249 1859.83 187.344C1860.4 187.392 1860.96 187.226 1861.53 186.85L1910.38 146.119L1959.22 186.85C1959.6 187.178 1960.09 187.342 1960.71 187.342H1960.92C1961.53 187.249 1962.02 186.989 1962.4 186.566L1966.78 181.343C1967.15 180.872 1967.32 180.318 1967.27 179.683C1967.22 179.049 1966.96 178.543 1966.49 178.167Z" fill="white"/>
<path d="M493.493 173.361L469.46 193.173C469.46 193.201 469.453 193.242 469.439 193.298C469.426 193.354 469.418 193.394 469.418 193.423V213.485C469.418 214.21 469.683 214.838 470.213 215.366C470.742 215.895 471.369 216.161 472.093 216.161H488.143V200.111H498.844V216.162H514.893C515.617 216.162 516.245 215.896 516.774 215.366C517.303 214.838 517.569 214.21 517.569 213.485V193.423C517.569 193.312 517.554 193.228 517.527 193.173L493.493 173.361Z" fill="white"/>
<path d="M526.721 188.659L517.568 181.052V163.999C517.568 163.609 517.443 163.288 517.191 163.037C516.942 162.787 516.621 162.661 516.231 162.661H508.206C507.816 162.661 507.495 162.787 507.244 163.037C506.994 163.288 506.868 163.609 506.868 163.999V172.149L496.67 163.622C495.779 162.898 494.72 162.535 493.494 162.535C492.268 162.535 491.209 162.898 490.318 163.622L460.265 188.659C459.986 188.881 459.834 189.181 459.805 189.557C459.777 189.933 459.874 190.262 460.098 190.54L462.689 193.633C462.912 193.884 463.204 194.037 463.567 194.093C463.901 194.121 464.236 194.023 464.57 193.801L493.493 169.683L522.417 193.8C522.64 193.995 522.932 194.092 523.295 194.092H523.42C523.782 194.037 524.074 193.882 524.298 193.632L526.89 190.54C527.112 190.261 527.21 189.933 527.181 189.557C527.153 189.181 526.999 188.882 526.721 188.659Z" fill="white"/>
<path d="M1362.5 186.476L1353.89 180.997C1353.34 180.645 1352.69 179.745 1352.53 179.109L1350.15 169.682C1350.15 169.663 1350.14 169.645 1350.13 169.626C1349.92 168.548 1348.97 167.732 1347.83 167.732H1336.24C1335.67 167.732 1335.16 167.943 1334.75 168.279C1334.7 168.311 1334.64 168.34 1334.59 168.375L1326.33 174.233C1325.39 174.902 1324.82 176.319 1325.03 177.457L1327.58 191.108C1327.8 192.28 1328.91 193.198 1330.11 193.198L1331.42 193.128C1332.05 193.093 1332.64 192.798 1333.02 192.32C1333.4 191.842 1333.56 191.211 1333.45 190.587L1331.67 180.058C1331.57 179.506 1331.91 178.709 1332.37 178.386L1333.89 177.312V193.119L1333.58 201.717C1333.55 202.706 1333.08 204.254 1332.56 205.098L1324.75 217.78C1324.35 218.443 1324.26 219.202 1324.51 219.861C1324.76 220.52 1325.34 221.023 1326.09 221.24L1328.53 221.952C1328.8 222.032 1329.09 222.072 1329.39 222.072C1330.61 222.072 1331.82 221.401 1332.39 220.4L1339.84 207.515C1340.45 206.445 1341.03 204.645 1341.15 203.416L1341.84 196.372H1343.58L1346.24 203.186C1346.6 204.106 1346.77 205.707 1346.62 206.683L1344.51 220.183C1344.39 220.908 1344.57 221.583 1345 222.083C1345.41 222.568 1346.02 222.835 1346.71 222.835C1346.83 222.835 1346.96 222.826 1347.09 222.808L1349.61 222.459C1351.07 222.255 1352.36 220.949 1352.54 219.485L1354.25 205.953C1354.4 204.724 1354.22 202.84 1353.84 201.662L1350.18 190.452V186.235L1359.44 191.565C1359.79 191.77 1360.2 191.878 1360.61 191.878C1361.45 191.878 1362.23 191.438 1362.66 190.73L1363.27 189.719C1363.93 188.618 1363.58 187.164 1362.5 186.476Z" fill="white"/>
<path d="M1341.25 165.744C1345.93 165.744 1349.73 161.943 1349.73 157.271C1349.73 152.599 1345.93 148.798 1341.25 148.798C1336.58 148.798 1332.78 152.599 1332.78 157.271C1332.78 161.943 1336.58 165.744 1341.25 165.744Z" fill="white"/>
<path d="M2310.57 89.3333C2311.72 90.8629 2313.47 91.6689 2315.25 91.6689C2316.47 91.6689 2317.71 91.285 2318.76 90.4927C2321.34 88.5502 2321.86 84.8798 2319.92 82.2974C2316.05 77.1538 2313.92 70.7791 2313.92 64.345C2313.92 57.463 2316.33 50.7394 2320.69 45.416C2322.74 42.9158 2322.37 39.2273 2319.87 37.178C2317.37 35.1303 2313.68 35.496 2311.63 37.9962C2305.56 45.4069 2302.22 54.7647 2302.22 64.345C2302.22 73.3022 2305.18 82.1755 2310.57 89.3333Z" fill="white"/>
<path d="M2298.06 107.378C2299.36 107.378 2300.67 106.949 2301.75 106.067C2304.26 104.028 2304.64 100.341 2302.6 97.8331C2294.93 88.3976 2290.71 76.5045 2290.71 64.3448C2290.71 51.6229 2295.28 39.3108 2303.59 29.6757C2305.7 27.2288 2305.43 23.5326 2302.98 21.4209C2300.53 19.3108 2296.84 19.5835 2294.73 22.0304C2284.59 33.7894 2279 48.818 2279 64.3463C2279 79.186 2284.16 93.7012 2293.52 105.218C2294.67 106.641 2296.36 107.378 2298.06 107.378Z" fill="white"/>
<path d="M2373.68 64.345C2373.68 70.7791 2371.55 77.1553 2367.68 82.2974C2365.74 84.8814 2366.26 88.5502 2368.84 90.4927C2369.89 91.285 2371.13 91.6689 2372.35 91.6689C2374.13 91.6689 2375.88 90.8629 2377.04 89.3333C2382.42 82.1755 2385.38 73.3006 2385.38 64.345C2385.38 54.7647 2382.04 45.4069 2375.97 37.9962C2373.92 35.496 2370.23 35.1303 2367.73 37.178C2365.23 39.2273 2364.86 42.9143 2366.91 45.4145C2371.27 50.741 2373.68 57.463 2373.68 64.345Z" fill="white"/>
<path d="M2396.89 64.3451C2396.89 76.5048 2392.67 88.3979 2385 97.8335C2382.96 100.341 2383.34 104.028 2385.85 106.067C2386.93 106.949 2388.24 107.379 2389.54 107.379C2391.24 107.379 2392.93 106.64 2394.08 105.217C2403.45 93.7015 2408.6 79.1863 2408.6 64.3451C2408.6 48.8168 2403.02 33.7897 2392.87 22.0307C2390.76 19.5823 2387.07 19.3096 2384.62 21.4213C2382.17 23.5314 2381.9 27.2277 2384.01 29.6761C2392.32 39.3112 2396.89 51.6232 2396.89 64.3451Z" fill="white"/>
<path d="M2398.83 207.993H2382.4L2352.49 80.5089C2358.23 77.4038 2362.15 71.3232 2362.15 64.3453C2362.15 54.2241 2353.91 45.9892 2343.79 45.9892C2333.67 45.9892 2325.44 54.2241 2325.44 64.3453C2325.44 71.3248 2329.35 77.4038 2335.1 80.5089L2305.19 207.993H2288.79C2285.55 207.993 2282.93 210.613 2282.93 213.846C2282.93 217.078 2285.55 219.698 2288.79 219.698H2398.83C2402.06 219.698 2404.68 217.078 2404.68 213.846C2404.68 210.613 2402.06 207.993 2398.83 207.993ZM2359.32 160.908L2336.94 147.563L2353.87 137.646L2359.32 160.908ZM2343.79 57.6964C2347.46 57.6964 2350.44 60.6795 2350.44 64.3453C2350.44 68.0125 2347.46 70.9957 2343.79 70.9957C2340.13 70.9957 2337.14 68.0125 2337.14 64.3453C2337.14 60.6795 2340.13 57.6964 2343.79 57.6964ZM2343.79 94.7025L2351.07 125.718L2334.2 135.604L2343.79 94.7025ZM2329.27 156.616L2356.66 172.95L2320.4 194.401L2329.27 156.616ZM2320.42 207.993L2364.28 182.045L2370.37 207.993H2320.42Z" fill="white"/>
</svg>
